<svg width="182" height="140" viewBox="0 0 182 140" fill="none" xmlns="http://www.w3.org/2000/svg">
<g clip-path="url(#clip0_71_561)">
<path d="M116.992 83.9124H68.3906C67.0881 83.911 65.8394 83.4378 64.9183 82.5964C63.9973 81.7551 63.4793 80.6144 63.4778 79.4246V20.6396C63.4793 19.4498 63.9973 18.3091 64.9183 17.4678C65.8394 16.6265 67.0881 16.1532 68.3906 16.1519H116.992C118.295 16.1532 119.543 16.6264 120.464 17.4678C121.385 18.3091 121.904 19.4498 121.905 20.6396V79.4246C121.904 80.6144 121.385 81.7551 120.464 82.5965C119.543 83.4378 118.295 83.911 116.992 83.9124Z" fill="#E6E6E6"/>
<path d="M113.576 80.1725H71.8069C70.6504 80.1713 69.5417 79.7511 68.7239 79.0041C67.9061 78.2571 67.4461 77.2443 67.4448 76.1879V23.8772C67.4461 22.8208 67.9061 21.808 68.7239 21.061C69.5417 20.314 70.6504 19.8938 71.8069 19.8926H113.576C114.732 19.8938 115.841 20.314 116.659 21.061C117.477 21.808 117.937 22.8208 117.938 23.8772V76.1879C117.937 77.2443 117.477 78.2571 116.659 79.0041C115.841 79.7511 114.732 80.1713 113.576 80.1725Z" fill="white"/>
<path d="M109.409 29.8335H75.9736C75.8303 29.8337 75.6883 29.808 75.5558 29.7581C75.4233 29.7081 75.303 29.6347 75.2015 29.5422C75.1001 29.4497 75.0196 29.3398 74.9647 29.2189C74.9098 29.098 74.8816 28.9683 74.8816 28.8374C74.8816 28.7065 74.9098 28.5768 74.9647 28.4559C75.0196 28.3349 75.1001 28.2251 75.2015 28.1325C75.303 28.04 75.4233 27.9667 75.5558 27.9167C75.6883 27.8667 75.8303 27.8411 75.9736 27.8413H109.409C109.552 27.8411 109.694 27.8667 109.827 27.9167C109.959 27.9667 110.08 28.04 110.181 28.1325C110.282 28.2251 110.363 28.3349 110.418 28.4559C110.473 28.5768 110.501 28.7065 110.501 28.8374C110.501 28.9683 110.473 29.098 110.418 29.2189C110.363 29.3398 110.282 29.4497 110.181 29.5422C110.08 29.6347 109.959 29.7081 109.827 29.7581C109.694 29.808 109.552 29.8337 109.409 29.8335Z" fill="#E4E4E4"/>
<path d="M109.409 33.7696H75.9737C75.6845 33.7696 75.4071 33.6647 75.2026 33.4778C74.9981 33.291 74.8832 33.0377 74.8832 32.7735C74.8832 32.5093 74.9981 32.2559 75.2026 32.0691C75.4071 31.8823 75.6845 31.7773 75.9737 31.7773H109.409C109.698 31.7773 109.976 31.8823 110.18 32.0691C110.385 32.2559 110.5 32.5093 110.5 32.7735C110.5 33.0377 110.385 33.291 110.18 33.4778C109.976 33.6647 109.698 33.7696 109.409 33.7696Z" fill="#E4E4E4"/>
<path d="M90.4671 37.7056H75.9737C75.6845 37.7056 75.4071 37.6007 75.2026 37.4139C74.9981 37.2271 74.8832 36.9737 74.8832 36.7095C74.8832 36.4453 74.9981 36.1919 75.2026 36.0051C75.4071 35.8183 75.6845 35.7134 75.9737 35.7134H90.4671C90.7563 35.7134 91.0337 35.8183 91.2382 36.0051C91.4427 36.1919 91.5576 36.4453 91.5576 36.7095C91.5576 36.9737 91.4427 37.2271 91.2382 37.4139C91.0337 37.6007 90.7563 37.7056 90.4671 37.7056Z" fill="#E4E4E4"/>
<path d="M109.409 45.9487H75.9736C75.8303 45.9489 75.6883 45.9233 75.5558 45.8733C75.4233 45.8233 75.303 45.75 75.2015 45.6575C75.1001 45.5649 75.0196 45.4551 74.9647 45.3341C74.9098 45.2132 74.8816 45.0835 74.8816 44.9526C74.8816 44.8217 74.9098 44.6921 74.9647 44.5711C75.0196 44.4502 75.1001 44.3403 75.2015 44.2478C75.303 44.1553 75.4233 44.0819 75.5558 44.032C75.6883 43.982 75.8303 43.9564 75.9736 43.9565H109.409C109.552 43.9564 109.694 43.982 109.827 44.032C109.959 44.0819 110.08 44.1553 110.181 44.2478C110.282 44.3403 110.363 44.4502 110.418 44.5711C110.473 44.6921 110.501 44.8217 110.501 44.9526C110.501 45.0835 110.473 45.2132 110.418 45.3341C110.363 45.4551 110.282 45.5649 110.181 45.6575C110.08 45.75 109.959 45.8233 109.827 45.8733C109.694 45.9233 109.552 45.9489 109.409 45.9487Z" fill="#E4E4E4"/>
<path d="M109.409 49.8848H75.9737C75.6845 49.8848 75.4071 49.7799 75.2026 49.5931C74.9981 49.4063 74.8832 49.1529 74.8832 48.8887C74.8832 48.6245 74.9981 48.3711 75.2026 48.1843C75.4071 47.9975 75.6845 47.8926 75.9737 47.8926H109.409C109.698 47.8926 109.976 47.9975 110.18 48.1843C110.385 48.3711 110.5 48.6245 110.5 48.8887C110.5 49.1529 110.385 49.4063 110.18 49.5931C109.976 49.7799 109.698 49.8848 109.409 49.8848Z" fill="#E4E4E4"/>
<path d="M90.4671 53.8209H75.9737C75.6848 53.8205 75.4078 53.7154 75.2036 53.5286C74.9994 53.3418 74.8848 53.0887 74.8848 52.8247C74.8848 52.5608 74.9994 52.3076 75.2036 52.1209C75.4078 51.9341 75.6848 51.829 75.9737 51.8286H90.4671C90.7564 51.8286 91.0337 51.9336 91.2383 52.1204C91.4428 52.3072 91.5576 52.5606 91.5576 52.8247C91.5576 53.0889 91.4428 53.3423 91.2383 53.5291C91.0337 53.7159 90.7564 53.8209 90.4671 53.8209Z" fill="#E4E4E4"/>
<path d="M109.409 62.0644H75.9736C75.8303 62.0646 75.6883 62.039 75.5558 61.989C75.4233 61.939 75.303 61.8657 75.2015 61.7732C75.1001 61.6807 75.0196 61.5708 74.9647 61.4499C74.9098 61.3289 74.8816 61.1993 74.8816 61.0683C74.8816 60.9374 74.9098 60.8078 74.9647 60.6868C75.0196 60.5659 75.1001 60.456 75.2015 60.3635C75.303 60.271 75.4233 60.1977 75.5558 60.1477C75.6883 60.0977 75.8303 60.0721 75.9736 60.0723H109.409C109.552 60.0721 109.694 60.0977 109.827 60.1477C109.959 60.1977 110.08 60.271 110.181 60.3635C110.282 60.456 110.363 60.5659 110.418 60.6868C110.473 60.8078 110.501 60.9374 110.501 61.0683C110.501 61.1993 110.473 61.3289 110.418 61.4499C110.363 61.5708 110.282 61.6807 110.181 61.7732C110.08 61.8657 109.959 61.939 109.827 61.989C109.694 62.039 109.552 62.0646 109.409 62.0644Z" fill="#E4E4E4"/>
<path d="M109.409 66.0006H75.9737C75.6845 66.0006 75.4071 65.8956 75.2026 65.7088C74.9981 65.522 74.8832 65.2686 74.8832 65.0044C74.8832 64.7402 74.9981 64.4869 75.2026 64.3001C75.4071 64.1132 75.6845 64.0083 75.9737 64.0083H109.409C109.698 64.0083 109.976 64.1132 110.18 64.3001C110.385 64.4869 110.5 64.7402 110.5 65.0044C110.5 65.2686 110.385 65.522 110.18 65.7088C109.976 65.8956 109.698 66.0006 109.409 66.0006Z" fill="#E4E4E4"/>
<path d="M90.4671 69.9366H75.9737C75.6845 69.9366 75.4071 69.8316 75.2026 69.6448C74.9981 69.458 74.8832 69.2047 74.8832 68.9405C74.8832 68.6763 74.9981 68.4229 75.2026 68.2361C75.4071 68.0493 75.6845 67.9443 75.9737 67.9443H90.4671C90.7563 67.9443 91.0337 68.0493 91.2382 68.2361C91.4427 68.4229 91.5576 68.6763 91.5576 68.9405C91.5576 69.2047 91.4427 69.458 91.2382 69.6448C91.0337 69.8316 90.7563 69.9366 90.4671 69.9366Z" fill="#E4E4E4"/>
<path d="M83.0606 49.7375L46.7348 21.3551H22.3303V20.937H46.9038L83.3581 49.4198L83.0606 49.7375Z" fill="#2F2E41"/>
<path d="M22.3302 24.4913C24.3526 24.4913 25.9921 22.9937 25.9921 21.1463C25.9921 19.2989 24.3526 17.8013 22.3302 17.8013C20.3078 17.8013 18.6683 19.2989 18.6683 21.1463C18.6683 22.9937 20.3078 24.4913 22.3302 24.4913Z" fill="#FF9212"/>
<path d="M35.386 32.3974H1.95055C1.80735 32.3974 1.66555 32.3717 1.53326 32.3216C1.40096 32.2716 1.28075 32.1982 1.17949 32.1057C1.07823 32.0132 0.997913 31.9034 0.943113 31.7825C0.888314 31.6617 0.860107 31.5322 0.860107 31.4014C0.860107 31.2705 0.888314 31.141 0.943113 31.0202C0.997913 30.8993 1.07823 30.7895 1.17949 30.697C1.28075 30.6045 1.40096 30.5312 1.53326 30.4811C1.66555 30.431 1.80735 30.4053 1.95055 30.4053H35.386C35.5292 30.4053 35.671 30.431 35.8033 30.4811C35.9356 30.5312 36.0558 30.6045 36.157 30.697C36.2583 30.7895 36.3386 30.8993 36.3934 31.0202C36.4482 31.141 36.4764 31.2705 36.4764 31.4014C36.4764 31.5322 36.4482 31.6617 36.3934 31.7825C36.3386 31.9034 36.2583 32.0132 36.157 32.1057C36.0558 32.1982 35.9356 32.2716 35.8033 32.3216C35.671 32.3717 35.5292 32.3974 35.386 32.3974Z" fill="#FF9212"/>
<path d="M35.386 36.3336H1.9506C1.66138 36.3336 1.38401 36.2286 1.1795 36.0418C0.974997 35.855 0.860107 35.6016 0.860107 35.3374C0.860107 35.0732 0.974997 34.8199 1.1795 34.6331C1.38401 34.4463 1.66138 34.3413 1.9506 34.3413H35.386C35.6752 34.3413 35.9526 34.4463 36.1571 34.6331C36.3616 34.8199 36.4765 35.0732 36.4765 35.3374C36.4765 35.6016 36.3616 35.855 36.1571 36.0418C35.9526 36.2286 35.6752 36.3336 35.386 36.3336Z" fill="#FF9212"/>
<path d="M16.444 40.2696H1.9506C1.66138 40.2696 1.38401 40.1647 1.1795 39.9778C0.974997 39.791 0.860107 39.5377 0.860107 39.2735C0.860107 39.0093 0.974997 38.7559 1.1795 38.5691C1.38401 38.3823 1.66138 38.2773 1.9506 38.2773H16.444C16.7333 38.2773 17.0106 38.3823 17.2151 38.5691C17.4196 38.7559 17.5345 39.0093 17.5345 39.2735C17.5345 39.5377 17.4196 39.791 17.2151 39.9778C17.0106 40.1647 16.7333 40.2696 16.444 40.2696Z" fill="#FF9212"/>
<path d="M92.6913 31.743L129.146 3.26025H153.719V3.67834H129.315L92.9889 32.0607L92.6913 31.743Z" fill="#2F2E41"/>
<path d="M153.719 6.81454C155.742 6.81454 157.381 5.31693 157.381 3.46953C157.381 1.62213 155.742 0.124512 153.719 0.124512C151.697 0.124512 150.057 1.62213 150.057 3.46953C150.057 5.31693 151.697 6.81454 153.719 6.81454Z" fill="#FF9212"/>
<path d="M178.618 14.6035H145.183C145.039 14.6037 144.897 14.578 144.765 14.5281C144.632 14.4781 144.512 14.4048 144.411 14.3122C144.309 14.2197 144.229 14.1099 144.174 13.9889C144.119 13.868 144.091 13.7383 144.091 13.6074C144.091 13.4765 144.119 13.3468 144.174 13.2259C144.229 13.105 144.309 12.9951 144.411 12.9026C144.512 12.8101 144.632 12.7367 144.765 12.6867C144.897 12.6368 145.039 12.6111 145.183 12.6113H178.618C178.761 12.6111 178.903 12.6368 179.036 12.6867C179.168 12.7367 179.289 12.8101 179.39 12.9026C179.491 12.9951 179.572 13.105 179.627 13.2259C179.682 13.3468 179.71 13.4765 179.71 13.6074C179.71 13.7383 179.682 13.868 179.627 13.9889C179.572 14.1099 179.491 14.2197 179.39 14.3122C179.289 14.4048 179.168 14.4781 179.036 14.5281C178.903 14.578 178.761 14.6037 178.618 14.6035Z" fill="#FF9212"/>
<path d="M178.618 18.5396H145.183C144.893 18.5396 144.616 18.4347 144.411 18.2479C144.207 18.0611 144.092 17.8077 144.092 17.5435C144.092 17.2793 144.207 17.0259 144.411 16.8391C144.616 16.6523 144.893 16.5474 145.183 16.5474H178.618C178.761 16.5474 178.903 16.5731 179.035 16.6232C179.168 16.6732 179.288 16.7466 179.389 16.8391C179.49 16.9316 179.571 17.0414 179.625 17.1623C179.68 17.2831 179.708 17.4127 179.708 17.5435C179.708 17.6743 179.68 17.8038 179.625 17.9247C179.571 18.0455 179.49 18.1554 179.389 18.2479C179.288 18.3404 179.168 18.4137 179.035 18.4638C178.903 18.5139 178.761 18.5396 178.618 18.5396Z" fill="#FF9212"/>
<path d="M159.676 22.4757H145.183C144.893 22.4757 144.616 22.3707 144.411 22.1839C144.207 21.9971 144.092 21.7437 144.092 21.4795C144.092 21.2153 144.207 20.962 144.411 20.7752C144.616 20.5883 144.893 20.4834 145.183 20.4834H159.676C159.965 20.4834 160.243 20.5883 160.447 20.7752C160.652 20.962 160.766 21.2153 160.766 21.4795C160.766 21.7437 160.652 21.9971 160.447 22.1839C160.243 22.3707 159.965 22.4757 159.676 22.4757Z" fill="#FF9212"/>
<path d="M152.405 94.5863C152.216 94.399 152.075 94.1762 151.991 93.9336C151.907 93.6911 151.882 93.4346 151.918 93.1824C151.955 92.9301 152.051 92.6882 152.201 92.4736C152.35 92.259 152.549 92.077 152.784 91.9405L151.223 85.9229L154.528 87.0257L155.504 92.571C155.729 92.9468 155.795 93.385 155.69 93.8024C155.585 94.2199 155.316 94.5877 154.934 94.8361C154.552 95.0845 154.084 95.1963 153.617 95.1502C153.151 95.1042 152.72 94.9035 152.405 94.5863Z" fill="#9E616A"/>
<path d="M144.458 69.3693L145.784 72.4844C145.784 72.4844 145.216 75.5995 146.163 76.2917C147.11 76.984 146.731 76.984 146.731 77.5032C146.764 77.8756 146.882 78.2376 147.078 78.5655C147.274 78.8935 147.543 79.1802 147.868 79.4068C148.626 79.926 152.036 90.4828 152.036 90.4828H155.446C155.336 89.6783 155.336 88.8644 155.446 88.0599C155.636 86.8485 154.878 83.7334 154.499 83.2142C154.12 82.695 154.499 82.0028 154.499 80.9644C154.499 79.926 153.741 79.4069 153.741 77.6762C153.741 75.9456 151.468 62.4469 151.657 60.8893C151.847 59.3318 149.763 57.9473 149.763 57.9473H147.868L144.458 69.3693Z" fill="#E6E7E8"/>
<path d="M136.434 75.9769L133.282 88.8264L153.481 87.6786L147.988 75.0591L136.434 75.9769Z" fill="#9E616A"/>
<path d="M180.463 124.271C179.861 126.257 178.922 128.144 177.68 129.864C174.905 133.698 170.933 136.629 166.567 138.975C166.265 139.14 165.958 139.301 165.651 139.459H162.588L162.482 139.236V139.233L162.357 138.975L162.342 138.945L162.335 138.975L162.213 139.459H160.709C160.585 139.298 160.462 139.138 160.342 138.975C160.166 138.738 159.997 138.498 159.837 138.254C159.555 137.828 159.302 137.385 159.081 136.93C159.054 136.879 159.032 136.828 159.01 136.777L159.11 136.678L158.694 135.016L159.53 134.89L158.614 132.308C158.647 132.212 158.685 132.117 158.725 132.022C159.239 130.833 160.204 129.945 161.35 129.2C162.528 128.43 163.901 127.812 165.162 127.17C165.753 126.868 166.336 126.549 166.903 126.211V126.209C167.628 125.781 168.331 125.322 169.014 124.834C169.025 124.827 169.036 124.82 169.047 124.812C169.056 124.805 169.065 124.799 169.074 124.791C172.131 122.609 174.719 119.928 176.704 116.883L176.705 116.882L176.706 116.882L176.706 116.881L176.706 116.88C176.773 116.783 176.835 116.685 176.898 116.586V116.584C177.711 115.306 178.41 113.971 178.99 112.592V112.59C179.035 112.488 179.075 112.387 179.117 112.285C179.175 112.375 179.23 112.464 179.284 112.553L179.285 112.553L179.285 112.554L179.286 112.555L179.286 112.555C181.443 116.08 181.648 120.326 180.463 124.271Z" fill="#F0F0F0"/>
<path d="M179.286 112.555C179.308 114.436 179.093 116.313 178.648 118.15C178.447 118.99 178.198 119.82 177.9 120.636C177.323 122.233 176.568 123.771 175.648 125.228C175.596 125.307 175.548 125.384 175.494 125.461V125.463C175.101 126.069 174.674 126.656 174.215 127.223C173.521 128.125 172.664 128.912 171.68 129.551C170.876 130.036 169.968 130.357 169.016 130.491C168.838 130.522 168.655 130.544 168.471 130.564C167.735 130.644 166.974 130.674 166.245 130.816C165.875 130.883 165.515 130.989 165.173 131.131C163.998 131.629 163.338 132.671 163.049 133.784C162.998 133.98 162.958 134.177 162.926 134.374C162.684 135.887 162.951 137.46 162.813 138.975C162.797 139.136 162.777 139.298 162.753 139.459H162.588L162.482 139.235V139.233C162.493 139.148 162.502 139.062 162.51 138.975C162.564 138.23 162.571 137.484 162.531 136.738C162.522 136.403 162.515 136.066 162.519 135.729C162.524 135.458 162.535 135.188 162.557 134.92V134.918C162.573 134.751 162.591 134.587 162.615 134.422C162.686 133.919 162.822 133.424 163.02 132.95C163.213 132.46 163.518 132.014 163.913 131.64C164.309 131.267 164.787 130.973 165.315 130.78C165.638 130.669 165.97 130.584 166.309 130.526C167.054 130.396 167.824 130.363 168.573 130.278C168.653 130.27 168.733 130.26 168.811 130.248C168.911 130.233 169.009 130.217 169.107 130.201C170.087 130.042 171.014 129.675 171.811 129.13C172.759 128.445 173.583 127.628 174.253 126.709C174.618 126.231 174.965 125.744 175.287 125.242C175.287 125.242 175.287 125.241 175.287 125.241C175.288 125.241 175.288 125.241 175.288 125.24C175.288 125.24 175.288 125.24 175.289 125.24C175.289 125.24 175.289 125.24 175.29 125.24C175.305 125.215 175.321 125.193 175.336 125.169L175.338 125.165C176.722 123.005 177.731 120.664 178.332 118.223C178.352 118.134 178.374 118.044 178.396 117.955C178.809 116.192 179.008 114.394 178.99 112.591V112.589C178.99 112.504 178.988 112.421 178.986 112.336C178.981 112.161 179.277 112.122 179.282 112.297C179.284 112.382 179.286 112.468 179.284 112.553C179.284 112.553 179.284 112.553 179.285 112.553C179.285 112.553 179.285 112.553 179.285 112.553C179.286 112.554 179.286 112.554 179.286 112.554C179.286 112.554 179.286 112.555 179.286 112.555Z" fill="white"/>
<path d="M175.367 125.406C176.215 125.8 177.188 125.905 178.112 125.703C179.037 125.502 179.853 125.007 180.414 124.306C180.528 124.164 180.291 123.997 180.178 124.139C179.656 124.792 178.896 125.253 178.035 125.439C177.173 125.626 176.267 125.524 175.481 125.154C175.31 125.073 175.197 125.327 175.367 125.406Z" fill="white"/>
<path d="M169.135 130.282C168.516 128.599 168.614 126.766 169.409 125.146C169.488 124.986 169.211 124.882 169.132 125.043C168.308 126.729 168.211 128.638 168.86 130.387C168.922 130.554 169.197 130.448 169.135 130.282Z" fill="white"/>
<path d="M178.482 117.98C178.12 117.89 177.787 117.72 177.515 117.484C177.242 117.248 177.038 116.953 176.921 116.627C176.861 116.46 176.586 116.566 176.645 116.733C176.776 117.092 177.002 117.417 177.303 117.678C177.603 117.94 177.969 118.13 178.369 118.233C178.406 118.245 178.446 118.245 178.483 118.231C178.519 118.217 178.548 118.191 178.564 118.158C178.579 118.125 178.579 118.087 178.563 118.054C178.548 118.02 178.519 117.994 178.482 117.98Z" fill="white"/>
<path d="M166.903 126.209V126.211C166.834 127.662 166.635 129.105 166.309 130.526V130.528C166.291 130.626 166.267 130.721 166.245 130.817C165.708 133.015 164.955 135.164 163.996 137.238C163.732 137.823 163.454 138.402 163.164 138.975C163.084 139.138 163.002 139.298 162.918 139.459H162.588L162.482 139.235V139.233L162.357 138.975L162.342 138.945L162.335 138.975L162.213 139.459H159.032L158.414 138.975L157.513 138.27L158.772 137.015L158.979 136.808L159.01 136.777L159.11 136.678L158.694 135.016L159.53 134.89L158.614 132.308L158.18 131.087L158.071 130.78L157.438 128.994L155.525 129.321L155.214 128.326C155.787 127.112 156.264 125.862 156.641 124.586C156.644 124.576 156.648 124.568 156.65 124.557C157.661 121.12 157.964 117.54 157.544 114.002V114C157.531 113.886 157.515 113.77 157.498 113.658V113.654C157.307 112.188 156.986 110.738 156.537 109.319C156.506 109.211 156.47 109.106 156.437 109C156.539 109.041 156.639 109.079 156.742 109.12L156.744 109.122H156.748C156.911 109.187 157.073 109.256 157.231 109.329C161.025 111.013 163.816 114.174 165.402 117.819C165.406 117.829 165.411 117.837 165.415 117.847C166.242 119.758 166.736 121.776 166.876 123.826C166.93 124.62 166.938 125.415 166.903 126.209Z" fill="#F0F0F0"/>
<path d="M161.132 139.459H160.78C160.669 139.294 160.549 139.134 160.429 138.975C160.238 138.729 160.04 138.489 159.837 138.254C159.662 138.051 159.486 137.85 159.31 137.649C159.128 137.439 158.948 137.23 158.772 137.015L158.979 136.808C159.012 136.848 159.046 136.889 159.081 136.93C159.65 137.614 160.266 138.272 160.794 138.975C160.911 139.134 161.025 139.294 161.132 139.459Z" fill="white"/>
<path d="M156.363 109.114C156.421 109.181 156.481 109.25 156.536 109.319C156.97 109.833 157.38 110.363 157.766 110.91C158.454 111.874 159.065 112.882 159.594 113.926C159.637 114.008 159.679 114.091 159.719 114.174C160.852 116.456 161.59 118.885 161.907 121.374C161.912 121.398 161.914 121.421 161.916 121.445C161.99 122.026 162.037 122.609 162.059 123.194C162.13 124.296 162.01 125.401 161.705 126.469C161.661 126.609 161.612 126.747 161.558 126.881C161.424 127.21 161.257 127.526 161.058 127.826C160.915 128.045 160.756 128.255 160.582 128.454C160.477 128.576 160.368 128.696 160.253 128.811C160.186 128.878 160.117 128.945 160.048 129.013C159.99 129.063 159.935 129.116 159.877 129.167C159.276 129.699 158.614 130.193 158.071 130.78L158.18 131.087C158.703 130.481 159.377 129.98 159.984 129.451C160.365 129.124 160.712 128.765 161.02 128.379C161.06 128.326 161.102 128.273 161.14 128.218C161.346 127.943 161.524 127.651 161.672 127.347C161.747 127.194 161.816 127.038 161.878 126.875C162.242 125.825 162.407 124.726 162.368 123.625C162.361 122.92 162.315 122.215 162.23 121.514C162.221 121.423 162.21 121.333 162.197 121.242C161.971 119.573 161.56 117.93 160.969 116.338C160.221 114.318 159.193 112.394 157.909 110.613C157.542 110.103 157.153 109.605 156.741 109.12C156.688 109.053 156.632 108.988 156.574 108.921C156.456 108.782 156.245 108.975 156.363 109.114Z" fill="white"/>
<path d="M162.091 121.54C163.026 121.388 163.873 120.937 164.478 120.267C165.083 119.598 165.408 118.754 165.395 117.885C165.394 117.85 165.379 117.816 165.351 117.791C165.323 117.767 165.286 117.752 165.248 117.752C165.209 117.752 165.171 117.765 165.143 117.789C165.115 117.813 165.098 117.847 165.096 117.882C165.11 118.691 164.807 119.477 164.242 120.099C163.677 120.721 162.887 121.139 162.015 121.276C161.825 121.306 161.902 121.57 162.091 121.54Z" fill="white"/>
<path d="M160.328 128.86C158.725 127.857 157.595 126.339 157.162 124.609C157.119 124.437 156.83 124.507 156.873 124.678C157.327 126.478 158.507 128.055 160.178 129.095C160.337 129.194 160.487 128.958 160.328 128.86Z" fill="white"/>
<path d="M159.683 113.897C159.334 114.024 158.957 114.071 158.583 114.032C158.21 113.994 157.853 113.871 157.544 113.675C157.387 113.575 157.237 113.811 157.394 113.911C157.736 114.126 158.13 114.261 158.542 114.305C158.955 114.348 159.372 114.299 159.759 114.161C159.797 114.151 159.829 114.128 159.848 114.097C159.868 114.066 159.874 114.029 159.866 113.994C159.855 113.959 159.83 113.929 159.796 113.911C159.762 113.893 159.721 113.888 159.683 113.897Z" fill="white"/>
<path d="M139.798 135.282H137.529L136.449 127.287L139.798 127.287L139.798 135.282Z" fill="#9E616A"/>
<path d="M141.018 139.217H139.408L139.121 137.828L138.385 139.217H134.114C133.91 139.217 133.71 139.157 133.546 139.046C133.381 138.936 133.259 138.78 133.198 138.601C133.137 138.423 133.14 138.231 133.207 138.054C133.274 137.877 133.401 137.725 133.569 137.619L136.979 135.467V134.063L140.566 134.259L141.018 139.217Z" fill="#2F2E41"/>
<path d="M161.242 134.25L159.025 134.69L156.115 127.086L159.387 126.438L161.242 134.25Z" fill="#9E616A"/>
<path d="M163.349 137.86L161.775 138.172L161.172 136.871L160.775 138.37L156.602 139.197C156.402 139.237 156.193 139.217 156.006 139.141C155.82 139.064 155.664 138.935 155.563 138.773C155.462 138.61 155.421 138.422 155.445 138.236C155.469 138.051 155.558 137.877 155.698 137.741L158.531 134.978L158.205 133.606L161.756 133.103L163.349 137.86Z" fill="#2F2E41"/>
<path d="M177.222 139.217C177.222 139.249 177.216 139.28 177.202 139.309C177.189 139.339 177.17 139.366 177.145 139.388C177.12 139.41 177.091 139.428 177.059 139.44C177.027 139.453 176.992 139.459 176.958 139.459H114.621C114.551 139.459 114.484 139.433 114.434 139.388C114.385 139.342 114.357 139.281 114.357 139.217C114.357 139.153 114.385 139.091 114.434 139.046C114.484 139.001 114.551 138.975 114.621 138.975H176.958C176.992 138.975 177.027 138.981 177.059 138.993C177.091 139.005 177.12 139.023 177.145 139.046C177.17 139.068 177.189 139.095 177.202 139.124C177.216 139.154 177.222 139.185 177.222 139.217Z" fill="#CCCCCC"/>
<path d="M132.766 99.5711C134.359 107.565 134.757 111.017 134.757 111.017C134.757 111.017 133.562 112.288 134.359 113.016C135.155 113.743 134.359 115.196 134.359 115.196L136.149 132.819L137.59 132.606L141.062 132.096L142.314 131.911L141.518 115.378C141.518 115.378 142.314 113.924 141.916 113.56C141.518 113.197 142.314 111.017 142.314 111.017L143.308 93.7568L149.475 112.652C149.475 112.652 148.877 113.379 149.475 113.924C150.071 114.468 151.263 117.195 151.263 117.195L154.931 128.917L155.242 129.912L157.154 129.585L159.236 129.227L159.619 129.162L160.299 129.045L160.737 128.969L160.886 128.945L161.607 128.821L161.389 127.937L161.276 127.472L158.173 114.885L158.102 114.594L158.026 114.288C158.026 114.288 158.424 113.379 157.828 112.833C157.654 112.666 157.527 112.464 157.457 112.242C157.388 112.02 157.379 111.787 157.43 111.561C157.45 111.542 157.468 111.522 157.484 111.5C157.554 111.412 157.603 111.311 157.626 111.204C157.679 110.976 157.633 110.657 157.23 110.289C157.117 110.179 157.022 110.055 156.948 109.92C156.343 108.873 156.038 106.657 156.038 106.657C156.038 106.657 155.5 89.1026 153.738 86.4209C153.645 86.2808 151.775 83.5897 151.677 83.5348C149.689 82.4459 133.282 83.95 133.282 83.95C133.282 83.95 132.344 86.2523 132.301 86.492C132.072 87.8389 131.416 92.7898 132.766 99.5711Z" fill="#535D6A"/>
<path d="M132.86 94.5638C133.048 94.3765 133.189 94.1537 133.273 93.9112C133.357 93.6686 133.382 93.4121 133.346 93.1599C133.31 92.9076 133.213 92.6657 133.064 92.4511C132.914 92.2366 132.715 92.0546 132.48 91.918L134.041 85.9004L130.736 87.0032L129.76 92.5486C129.535 92.9243 129.469 93.3625 129.574 93.78C129.679 94.1974 129.948 94.5652 130.33 94.8136C130.712 95.062 131.181 95.1738 131.647 95.1278C132.113 95.0817 132.544 94.8811 132.86 94.5638Z" fill="#9E616A"/>
<path d="M135.501 57.9249C135.501 57.9249 137.138 55.6975 140.359 52.7555C142.064 52.2363 145.018 52.5389 146.042 52.7555C150.779 58.4665 151.077 58.087 152.31 61.2779C152.629 62.1054 152.789 62.9004 152.647 63.5494C152.079 66.1453 152.99 79.2614 153.179 79.9536C153.369 80.6459 154.695 81.5112 153.369 81.5112C152.043 81.5112 131.96 80.8189 132.339 80.2997C132.718 79.7806 135.501 57.9249 135.501 57.9249Z" fill="#E6E7E8"/>
<path d="M137.396 57.9248H135.501C135.501 57.9248 133.417 59.3093 133.607 60.8668C133.796 62.4244 131.523 75.9232 131.523 77.6538C131.523 79.3844 130.765 79.9036 130.765 80.9419C130.765 81.9803 131.144 82.6726 130.765 83.1917C130.386 83.7109 129.628 86.826 129.818 88.0375C129.928 88.8419 129.928 89.6558 129.818 90.4603H133.228C133.228 90.4603 136.638 79.9036 137.396 79.3844C137.721 79.1577 137.99 78.8711 138.186 78.5431C138.382 78.2151 138.5 77.8531 138.533 77.4807C138.533 76.9615 138.154 76.9615 139.101 76.2693C140.048 75.5771 139.48 72.4619 139.48 72.4619L140.806 69.3468L137.396 57.9248Z" fill="#E6E7E8"/>
<path d="M141.287 50.5406C144.317 50.5406 146.773 48.297 146.773 45.5293C146.773 42.7617 144.317 40.5181 141.287 40.5181C138.257 40.5181 135.801 42.7617 135.801 45.5293C135.801 48.297 138.257 50.5406 141.287 50.5406Z" fill="#9E616A"/>
<path d="M137.445 54.9206L136.93 52.8602C136.761 52.1707 136.745 51.4572 136.882 50.7619C137.019 50.0665 137.308 49.4032 137.73 48.8112C138.118 48.2531 138.334 47.6098 138.356 46.9489C138.378 46.288 138.204 45.634 137.854 45.0555C137.257 44.0629 136.227 43.4702 135.099 43.4702H134.962V43.3451C134.962 41.5482 136.495 40.2799 137.92 40.2072C137.972 39.8332 138.262 39.4981 138.767 39.2319C139.974 38.5964 142.307 38.4585 144.07 39.3056C144.103 39.0317 144.216 38.771 144.398 38.5511C144.579 38.3311 144.823 38.1602 145.102 38.0564C145.392 37.9644 145.704 37.948 146.003 38.0091C146.029 37.5586 146.232 37.1319 146.576 36.8081C147.063 36.3773 147.844 36.2135 148.719 36.358C149.92 36.5571 151.104 37.2564 152.053 38.327C152.895 39.2763 153.479 40.395 154.044 41.4768C154.599 42.5408 155.173 43.6409 156.006 44.5724C156.918 45.5929 158.048 46.2541 159.188 46.4342C160.518 46.6444 161.882 46.1444 162.507 45.2186L162.631 45.0348L162.744 45.2245C163.445 46.402 163.158 48.02 162.061 49.0716C161.077 50.0149 159.534 50.4953 157.933 50.3558C156.577 50.2381 155.21 49.7119 153.869 48.7921C152.538 47.8786 151.714 46.8688 151.421 45.7906C151.34 45.457 151.281 45.1191 151.245 44.7787C151.155 44.0658 151.069 43.3924 150.589 42.8967C150.158 42.4511 149.49 42.258 148.898 42.1121L148.782 42.0836C148.76 42.2844 148.691 42.4786 148.58 42.6525C148.468 42.8265 148.316 42.9761 148.134 43.0909C148.025 43.1508 147.906 43.1929 147.781 43.2153C148.467 45.7393 148.185 47.6717 146.941 48.9601C144.841 51.135 140.806 50.6877 140.636 50.6678L140.522 50.6543L140.516 50.5498C140.501 50.2695 140.463 49.9904 140.404 49.715C139.826 50.9869 137.882 54.3504 137.622 54.6896L137.445 54.9206Z" fill="#2F2E41"/>
</g>
<defs>
<clipPath id="clip0_71_561">
<rect width="180.322" height="139.334" fill="white" transform="translate(0.860107 0.124512)"/>
</clipPath>
</defs>
</svg>
