<svg width="168" height="110" viewBox="0 0 168 110" fill="none" xmlns="http://www.w3.org/2000/svg">
<g clip-path="url(#clip0_71_650)">
<path d="M160.554 73.2134C159.35 74.5128 157.856 75.4802 156.236 76.2312H156.234C156.081 76.3027 155.929 76.3722 155.774 76.4378H155.772L155.77 76.4398L155.768 76.4378H155.766L155.766 76.4386L155.766 76.4392L155.765 76.4396L155.764 76.4398H155.762L155.761 76.4378C155.759 76.4398 155.759 76.4398 155.757 76.4378L155.755 76.4398L155.753 76.4378H155.751C155.749 76.4398 155.749 76.4398 155.747 76.4378H155.745C154.66 76.9013 153.546 77.2947 152.41 77.6156C145.728 79.488 138.705 79.8503 131.863 78.6757C131.732 78.6525 131.603 78.6293 131.472 78.6061V62.9453C131.601 62.8912 131.732 62.8372 131.863 62.785C132.717 62.4356 133.582 62.1144 134.457 61.8216C135.716 61.3968 136.992 61.0325 138.286 60.7287C142.508 59.7194 146.865 59.3715 151.196 59.6977C151.984 59.7556 152.77 59.8393 153.554 59.9487C155.194 60.1746 156.914 60.5685 158.427 61.252H158.429C158.65 61.3543 158.867 61.4605 159.082 61.5744C160.427 62.2946 161.561 63.2851 162.253 64.6425C162.501 65.13 162.68 65.6492 162.784 66.1852V66.1891C162.823 66.3744 162.851 66.5617 162.872 66.7471C163.119 69.0332 162.159 71.4795 160.554 73.2134Z" fill="#F2F2F2"/>
<path d="M162.872 66.7466C162.853 66.7513 162.833 66.7539 162.814 66.7543C159.465 66.8992 156.121 67.1141 152.781 67.3992H152.776C152.762 67.4012 152.75 67.4012 152.736 67.4031C149.308 67.6966 145.886 68.0641 142.472 68.5056C142.327 68.5249 142.184 68.5442 142.041 68.5616C139.68 68.8725 137.323 69.2174 134.971 69.5965C133.933 69.7645 132.897 69.9396 131.863 70.1217C131.732 70.1449 131.603 70.1661 131.472 70.1912V69.6062C131.603 69.5811 131.733 69.5598 131.863 69.5367C135.307 68.9342 138.763 68.4084 142.231 67.9592C143.103 67.8433 143.976 67.7339 144.851 67.6309C147.376 67.3297 149.906 67.0697 152.439 66.8509C152.625 66.8354 152.809 66.82 152.994 66.8045C156.238 66.5323 159.485 66.3257 162.737 66.1848C162.753 66.184 162.769 66.1853 162.784 66.1886C163.097 66.2157 163.164 66.679 162.872 66.7466Z" fill="white"/>
<path d="M155.918 75.8685C151.747 75.8988 147.637 74.1516 144.686 71.2598C143.853 70.4406 143.12 69.529 142.5 68.5431C142.301 68.228 141.835 68.5755 142.033 68.8878C144.324 72.5178 148.141 75.1037 152.35 76.0545C153.545 76.322 154.768 76.4512 155.993 76.4395C156.367 76.4368 156.29 75.8658 155.918 75.8685Z" fill="white"/>
<path d="M138.286 60.7285C138.268 60.7828 138.236 60.8315 138.193 60.8698C138.151 60.9081 138.098 60.9346 138.042 60.9467C137.086 61.1941 136.162 61.5505 135.289 62.0086C134.015 62.6734 132.858 63.5374 131.863 64.567C131.81 64.6191 131.759 64.6712 131.71 64.7253C131.628 64.8103 131.55 64.8971 131.472 64.986V64.1441C131.597 64.0128 131.728 63.8835 131.863 63.7599C132.648 63.0167 133.519 62.3662 134.457 61.8214C135.716 61.3966 136.992 61.0323 138.286 60.7285Z" fill="white"/>
<path d="M158.773 61.0997C156.119 62.2262 153.899 64.1598 152.435 66.6191C152.405 66.6894 152.405 66.7685 152.434 66.8391C152.463 66.9098 152.519 66.9662 152.59 66.9963C152.661 67.0242 152.741 67.0238 152.812 66.9953C152.883 66.9668 152.94 66.9124 152.972 66.8433C154.369 64.5206 156.477 62.6962 158.992 61.6332C159.337 61.4876 159.119 60.9538 158.773 61.0997Z" fill="white"/>
<path d="M166.772 44.7006C166.319 46.4036 165.449 47.9463 164.368 49.3539L164.366 49.3558C164.266 49.4871 164.163 49.6203 164.055 49.7477V49.7497C163.304 50.6629 162.494 51.5266 161.629 52.335C158.519 55.2619 155.007 57.7404 151.196 59.6972C145.2 62.7904 138.499 64.6189 131.863 64.7232C131.812 64.7251 131.761 64.7251 131.71 64.7251C131.63 64.727 131.55 64.727 131.472 64.727V55.9515C131.599 55.712 131.73 55.4726 131.863 55.2351C133.587 52.1699 135.69 49.3279 138.124 46.7743C138.183 46.7106 138.243 46.6469 138.304 46.5851C139.219 45.6312 140.178 44.7231 141.181 43.8607C145.042 40.5081 149.503 37.8984 154.335 36.1664C155.894 35.6142 157.602 35.172 159.264 35.0851C159.508 35.0716 159.75 35.0658 159.995 35.0677C161.525 35.089 162.994 35.4462 164.247 36.3305C164.695 36.6488 165.098 37.0263 165.443 37.4523C165.564 37.601 165.676 37.7535 165.783 37.9099V37.9118C167.077 39.8233 167.378 42.428 166.772 44.7006Z" fill="#F2F2F2"/>
<path d="M165.783 37.9102V37.9121C165.769 37.9246 165.753 37.9356 165.736 37.945C162.843 39.6074 159.986 41.3303 157.166 43.1138C157.162 43.1157 157.16 43.1176 157.156 43.1195C157.145 43.1273 157.133 43.1344 157.121 43.1408C154.222 44.9751 151.364 46.8711 148.547 48.829C148.43 48.9101 148.311 48.9931 148.191 49.0761C146.246 50.4335 144.321 51.8198 142.417 53.2351C138.82 55.9112 135.302 58.6864 131.863 61.5608C131.732 61.6689 131.603 61.779 131.472 61.889V61.1379C131.601 61.0279 131.732 60.9178 131.863 60.8097C133.18 59.7111 134.509 58.6279 135.85 57.5601C136.251 57.2415 136.654 56.923 137.057 56.6082C140.634 53.795 144.291 51.0867 148.029 48.4834H148.031C148.766 47.9717 149.502 47.4645 150.24 46.9619C152.336 45.5369 154.455 44.1461 156.597 42.7894C156.752 42.6909 156.908 42.5924 157.064 42.494C159.807 40.764 162.586 39.0906 165.4 37.4738C165.414 37.4656 165.428 37.4585 165.443 37.4526C165.736 37.3368 166.012 37.7191 165.783 37.9102Z" fill="white"/>
<path d="M163.916 49.1788C160.236 51.1196 155.775 51.458 151.802 50.2509C150.679 49.9075 149.601 49.4368 148.588 48.8483C148.263 48.6605 148.015 49.1817 148.336 49.3678C152.073 51.531 156.669 52.0696 160.844 50.9806C162.028 50.6691 163.171 50.2226 164.251 49.6501C164.581 49.4761 164.244 49.0059 163.916 49.1788Z" fill="white"/>
<path d="M136.382 56.2436C136.2 55.2328 136.138 54.2046 136.196 53.1795C136.328 50.8418 137.053 48.5743 138.304 46.5857C139.22 45.6322 140.179 44.7239 141.182 43.8608C141.191 43.9173 141.186 43.9752 141.166 44.0288C141.146 44.0825 141.112 44.1301 141.067 44.1668C140.337 44.8247 139.687 45.5638 139.13 46.3694C137.138 49.2406 136.361 52.7666 136.963 56.1958C136.973 56.2347 136.973 56.2754 136.962 56.314C136.951 56.3527 136.93 56.3879 136.902 56.4165C136.86 56.4524 136.81 56.477 136.755 56.4876C136.701 56.4983 136.644 56.4947 136.592 56.4772C136.539 56.4597 136.492 56.429 136.456 56.388C136.419 56.347 136.394 56.2972 136.382 56.2436Z" fill="white"/>
<path d="M159.498 34.7903C157.678 37.0054 156.621 39.7364 156.481 42.5859C156.488 42.6618 156.525 42.732 156.584 42.7813C156.642 42.8305 156.719 42.8548 156.796 42.8489C156.872 42.8408 156.942 42.804 156.992 42.7462C157.041 42.6883 157.066 42.6138 157.062 42.5381C157.207 39.8401 158.216 37.2573 159.943 35.1622C160.18 34.8749 159.735 34.5024 159.498 34.7903Z" fill="white"/>
<path d="M139.254 41.1347V41.1367C139.24 41.3027 139.225 41.4668 139.207 41.631V41.6348C139.071 42.803 138.859 43.9614 138.572 45.1026C138.435 45.6625 138.286 46.2186 138.124 46.7746C138.104 46.8461 138.083 46.9175 138.061 46.987V46.989C137.584 48.6062 137.013 50.1953 136.353 51.7484C135.137 54.6079 133.633 57.339 131.863 59.9003C131.735 60.0876 131.605 60.2749 131.472 60.4603V30.2237C131.603 30.216 131.732 30.216 131.863 30.2198C131.925 30.2198 131.988 30.2218 132.05 30.2256C132.602 30.2542 133.147 30.3589 133.669 30.5365C133.853 30.5963 134.03 30.6639 134.206 30.7392C136.339 31.6621 138.014 33.6972 138.742 35.935C139.287 37.611 139.397 39.3738 139.254 41.1347Z" fill="#F2F2F2"/>
<path d="M134.206 30.7392C134.202 30.7581 134.195 30.7763 134.185 30.7932C133.393 32.3128 132.619 33.8401 131.863 35.3751C131.732 35.6396 131.601 35.906 131.472 36.1706V34.8576C131.601 34.595 131.731 34.3324 131.863 34.0698C132.447 32.8998 133.041 31.7348 133.645 30.575C133.652 30.5615 133.66 30.5486 133.669 30.5364C133.849 30.2816 134.294 30.4553 134.206 30.7392Z" fill="white"/>
<path d="M139.316 41.4456C139.281 41.5074 139.246 41.5692 139.207 41.631C138.633 42.619 137.95 43.5411 137.17 44.3805C135.672 45.9853 133.869 47.2825 131.863 48.1977C131.733 48.2595 131.603 48.3174 131.472 48.3715V47.7439C131.603 47.686 131.733 47.6262 131.863 47.5644C134.767 46.1963 137.179 43.9855 138.777 41.2274C138.8 41.1881 138.831 41.154 138.869 41.1277C138.906 41.1013 138.949 41.0832 138.994 41.0746C139.04 41.066 139.086 41.0671 139.131 41.0778C139.176 41.0885 139.218 41.1086 139.254 41.1367C139.278 41.1529 139.3 41.1738 139.316 41.1981C139.333 41.2224 139.344 41.2497 139.35 41.2783C139.356 41.307 139.356 41.3366 139.35 41.3653C139.344 41.394 139.333 41.4213 139.316 41.4456Z" fill="white"/>
<path d="M131.863 6.57873V21.2529H131.472V21.0965H0.692117V21.2529H0.301147V6.57873C0.302826 4.88936 0.983022 3.26965 2.19246 2.07509C3.40189 0.880523 5.04175 0.20869 6.75215 0.207031H125.412C127.122 0.20869 128.762 0.880523 129.971 2.07509C131.181 3.26965 131.861 4.88936 131.863 6.57873Z" fill="#FF9212"/>
<path d="M125.412 0.207031H6.75215C5.04175 0.20869 3.40189 0.880523 2.19246 2.07509C0.983022 3.26965 0.302826 4.88936 0.301147 6.57873V90.3762C0.302826 92.0656 0.983022 93.6852 2.19246 94.8798C3.40189 96.0744 5.04175 96.7462 6.75215 96.7479H125.412C127.122 96.7462 128.762 96.0744 129.971 94.8798C131.181 93.6852 131.861 92.0656 131.863 90.3762V6.57873C131.861 4.88936 131.181 3.26965 129.971 2.07509C128.762 0.880523 127.122 0.20869 125.412 0.207031ZM131.472 90.3762C131.47 91.963 130.83 93.4843 129.694 94.6064C128.558 95.7284 127.018 96.3597 125.412 96.3617H6.75215C5.14556 96.3597 3.60536 95.7284 2.46932 94.6064C1.33329 93.4843 0.694167 91.963 0.692117 90.3762V6.57873C0.694167 4.99189 1.33329 3.47062 2.46932 2.34855C3.60536 1.22649 5.14556 0.595219 6.75215 0.593195H125.412C127.018 0.59522 128.558 1.22649 129.694 2.34855C130.83 3.47062 131.47 4.99189 131.472 6.57873V90.3762Z" fill="#3F3D56"/>
<path d="M26.8871 14.5914C29.0464 14.5914 30.7968 12.8625 30.7968 10.7298C30.7968 8.59708 29.0464 6.86816 26.8871 6.86816C24.7278 6.86816 22.9774 8.59708 22.9774 10.7298C22.9774 12.8625 24.7278 14.5914 26.8871 14.5914Z" fill="white"/>
<path d="M105.277 14.5914C107.436 14.5914 109.186 12.8625 109.186 10.7298C109.186 8.59708 107.436 6.86816 105.277 6.86816C103.117 6.86816 101.367 8.59708 101.367 10.7298C101.367 12.8625 103.117 14.5914 105.277 14.5914Z" fill="white"/>
<path d="M38.1831 53.7874H14.9251C13.9397 53.7863 12.9951 53.3992 12.2984 52.711C11.6016 52.0229 11.2097 51.0898 11.2086 50.1166V39.2591C11.2097 38.2859 11.6016 37.3529 12.2984 36.6647C12.9951 35.9766 13.9397 35.5895 14.9251 35.5884H38.1831C39.1685 35.5895 40.1131 35.9766 40.8098 36.6647C41.5066 37.3529 41.8985 38.2859 41.8996 39.2591V50.1166C41.8985 51.0898 41.5066 52.0229 40.8098 52.711C40.1131 53.3992 39.1685 53.7863 38.1831 53.7874Z" fill="#FF9212"/>
<path d="M77.749 53.7874H54.4909C53.5056 53.7863 52.561 53.3992 51.8642 52.711C51.1675 52.0229 50.7756 51.0898 50.7745 50.1166V39.2591C50.7756 38.2859 51.1675 37.3529 51.8642 36.6647C52.561 35.9766 53.5056 35.5895 54.4909 35.5884H77.749C78.7343 35.5895 79.679 35.9766 80.3757 36.6647C81.0724 37.3529 81.4643 38.2859 81.4654 39.2591V50.1166C81.4643 51.0898 81.0724 52.0229 80.3757 52.711C79.679 53.3992 78.7343 53.7863 77.749 53.7874Z" fill="#FF9212"/>
<path d="M77.749 81.8405H54.4909C53.4758 81.8394 52.5025 81.4406 51.7846 80.7316C51.0668 80.0226 50.663 79.0612 50.6619 78.0585V67.2009C50.663 66.1982 51.0668 65.2369 51.7846 64.5279C52.5025 63.8189 53.4758 63.4201 54.4909 63.4189H77.749C78.7642 63.4201 79.7375 63.8189 80.4553 64.5279C81.1731 65.2369 81.5769 66.1982 81.5781 67.2009V78.0585C81.5769 79.0612 81.1731 80.0225 80.4553 80.7316C79.7375 81.4406 78.7642 81.8394 77.749 81.8405Z" fill="#F2F2F2"/>
<path d="M38.1068 81.8405H14.8488C13.8336 81.8394 12.8603 81.4406 12.1425 80.7316C11.4246 80.0225 11.0209 79.0612 11.0197 78.0585V67.2009C11.0209 66.1982 11.4246 65.2369 12.1425 64.5279C12.8603 63.8189 13.8336 63.4201 14.8488 63.4189H38.1068C39.122 63.4201 40.0953 63.8189 40.8131 64.5279C41.531 65.2369 41.9348 66.1982 41.9359 67.2009V78.0585C41.9348 79.0612 41.531 80.0225 40.8131 80.7316C40.0953 81.4406 39.122 81.8394 38.1068 81.8405Z" fill="#F2F2F2"/>
<path d="M117.315 81.8405H94.0569C93.0417 81.8394 92.0684 81.4406 91.3505 80.7316C90.6327 80.0225 90.2289 79.0612 90.2278 78.0585V67.2009C90.2289 66.1982 90.6327 65.2369 91.3505 64.5279C92.0684 63.8189 93.0417 63.4201 94.0569 63.4189H117.315C118.33 63.4201 119.303 63.8189 120.021 64.5279C120.739 65.2369 121.143 66.1982 121.144 67.2009V78.0585C121.143 79.0612 120.739 80.0225 120.021 80.7316C119.303 81.4406 118.33 81.8394 117.315 81.8405Z" fill="#F2F2F2"/>
<path d="M117.315 53.8093H94.0569C93.0417 53.8082 92.0684 53.4093 91.3505 52.7003C90.6327 51.9913 90.2289 51.03 90.2278 50.0273V39.1697C90.2289 38.167 90.6327 37.2057 91.3505 36.4967C92.0684 35.7876 93.0417 35.3888 94.0569 35.3877H117.315C118.33 35.3888 119.303 35.7876 120.021 36.4967C120.739 37.2057 121.143 38.167 121.144 39.1697V50.0273C121.143 51.03 120.739 51.9913 120.021 52.7003C119.303 53.4093 118.33 53.8082 117.315 53.8093Z" fill="#F2F2F2"/>
<path d="M26.5541 50.9173C30.0372 50.9173 32.8608 48.1284 32.8608 44.6882C32.8608 41.2479 30.0372 38.459 26.5541 38.459C23.071 38.459 20.2474 41.2479 20.2474 44.6882C20.2474 48.1284 23.071 50.9173 26.5541 50.9173Z" fill="white"/>
<path d="M25.9289 47.0642C25.787 47.0644 25.6489 47.0191 25.5354 46.935L25.5283 46.9298L24.0462 45.809C23.9775 45.7571 23.9198 45.6923 23.8764 45.6184C23.833 45.5444 23.8049 45.4627 23.7935 45.378C23.7821 45.2933 23.7877 45.2072 23.81 45.1246C23.8323 45.0421 23.8709 44.9646 23.9235 44.8968C23.9761 44.829 24.0418 44.772 24.1167 44.7293C24.1916 44.6865 24.2743 44.6587 24.3601 44.6476C24.4459 44.6364 24.5331 44.642 24.6166 44.6642C24.7002 44.6863 24.7786 44.7245 24.8472 44.7765L25.8072 45.5036L28.0758 42.5813C28.1285 42.5135 28.1941 42.4566 28.2689 42.4139C28.3438 42.3712 28.4265 42.3434 28.5122 42.3323C28.5979 42.3211 28.6851 42.3267 28.7686 42.3488C28.8521 42.3708 28.9304 42.409 28.999 42.4609L28.9849 42.4799L28.9994 42.4612C29.1378 42.5663 29.2284 42.7213 29.2512 42.8922C29.2741 43.0632 29.2273 43.2361 29.1213 43.3731L26.4528 46.8104C26.3911 46.8896 26.3117 46.9537 26.2209 46.9977C26.13 47.0417 26.0301 47.0644 25.9289 47.0642Z" fill="#FF9212"/>
<path d="M66.2326 50.828C69.7157 50.828 72.5393 48.0391 72.5393 44.5988C72.5393 41.1585 69.7157 38.3696 66.2326 38.3696C62.7495 38.3696 59.9259 41.1585 59.9259 44.5988C59.9259 48.0391 62.7495 50.828 66.2326 50.828Z" fill="white"/>
<path d="M65.6074 46.9748C65.4655 46.9751 65.3274 46.9297 65.2139 46.8457L65.2068 46.8405L63.7247 45.7197C63.5861 45.6148 63.4953 45.4597 63.4724 45.2887C63.4495 45.1177 63.4963 44.9448 63.6025 44.8078C63.7087 44.6709 63.8657 44.5813 64.0388 44.5586C64.2119 44.536 64.3871 44.5822 64.5257 44.6871L65.4857 45.4142L67.7543 42.4919C67.807 42.4242 67.8726 42.3673 67.9474 42.3246C68.0223 42.2818 68.105 42.2541 68.1907 42.2429C68.2764 42.2317 68.3636 42.2373 68.4471 42.2594C68.5306 42.2815 68.6089 42.3196 68.6775 42.3716L68.6634 42.3905L68.6779 42.3719C68.8163 42.4769 68.9069 42.6319 68.9297 42.8029C68.9526 42.9738 68.9059 43.1468 68.7998 43.2837L66.1313 46.721C66.0696 46.8002 65.9902 46.8643 65.8994 46.9083C65.8085 46.9523 65.7086 46.9751 65.6074 46.9748Z" fill="#FF9212"/>
<path d="M108.856 73.9932C109.064 73.7694 109.219 73.5035 109.31 73.2142C109.402 72.9248 109.429 72.6191 109.388 72.3185C109.347 72.018 109.241 71.7299 109.075 71.4745C108.909 71.2192 108.689 71.0028 108.43 70.8407L104.909 52.2715L100.627 53.8398L105.434 71.5996C105.187 72.0481 105.115 72.5705 105.232 73.0678C105.349 73.5651 105.647 74.0027 106.069 74.2977C106.491 74.5928 107.007 74.7247 107.521 74.6686C108.035 74.6125 108.51 74.3722 108.856 73.9932Z" fill="#A0616A"/>
<path d="M74.6885 45.6585C74.6992 45.7738 74.7006 45.8898 74.6928 46.0053L83.0185 52.3344L85.3795 51.3768L87.3084 54.7073L83.2955 56.8037C82.9713 56.9731 82.6002 57.034 82.238 56.9774C81.8758 56.9207 81.5419 56.7495 81.2866 56.4895L72.9646 48.0153C72.5241 48.1134 72.0637 48.0768 71.6448 47.9102C71.2259 47.7436 70.8683 47.455 70.6195 47.0828C70.3707 46.7106 70.2426 46.2723 70.2521 45.8264C70.2616 45.3805 70.4083 44.948 70.6728 44.5864C70.9373 44.2249 71.3069 43.9514 71.7325 43.8024C72.1582 43.6534 72.6197 43.636 73.0556 43.7524C73.4915 43.8687 73.8813 44.1135 74.1729 44.454C74.4646 44.7944 74.6445 45.2146 74.6885 45.6585Z" fill="#A0616A"/>
<path d="M94.1394 106.952H91.743L90.6027 99.7524L94.14 99.7526L94.1394 106.952Z" fill="#A0616A"/>
<path d="M94.7507 109.247L87.0231 109.247V109.15C87.0231 108.76 87.1009 108.374 87.252 108.013C87.4032 107.653 87.6247 107.325 87.904 107.049C88.1833 106.773 88.5149 106.555 88.8798 106.405C89.2448 106.256 89.6359 106.179 90.0309 106.179L94.7508 106.179L94.7507 109.247Z" fill="#2F2E41"/>
<path d="M103.132 106.952H100.735L99.595 99.7524L103.132 99.7526L103.132 106.952Z" fill="#A0616A"/>
<path d="M103.743 109.247L96.0154 109.247V109.15C96.0154 108.76 96.0932 108.374 96.2443 108.013C96.3955 107.653 96.617 107.325 96.8963 107.049C97.1756 106.773 97.5072 106.555 97.8722 106.405C98.2371 106.256 98.6282 106.179 99.0232 106.179L103.743 106.179L103.743 109.247Z" fill="#2F2E41"/>
<path d="M91.2452 105.529C91.0264 105.529 90.8155 105.449 90.6536 105.303C90.4918 105.158 90.3908 104.958 90.3705 104.743L88.282 76.9989L88.3807 76.991L102.753 75.8242L102.757 75.9251L103.899 104.665C103.904 104.782 103.884 104.899 103.842 105.008C103.8 105.117 103.736 105.217 103.654 105.301C103.572 105.385 103.473 105.452 103.364 105.497C103.256 105.543 103.138 105.567 103.02 105.567H100.202C99.9918 105.568 99.7881 105.494 99.6284 105.358C99.4687 105.223 99.3638 105.036 99.3328 104.83L95.5059 81.6129C95.5022 81.5889 95.4894 81.5672 95.4702 81.5521C95.451 81.537 95.4267 81.5296 95.4022 81.5313C95.3777 81.5331 95.3548 81.5439 95.338 81.5616C95.3212 81.5793 95.3118 81.6026 95.3116 81.6269L95.138 104.55C95.1362 104.772 95.049 104.984 94.8941 105.144C94.7393 105.304 94.5284 105.4 94.3046 105.412L91.2924 105.528C91.2766 105.529 91.2608 105.529 91.2452 105.529Z" fill="#2F2E41"/>
<path d="M93.6984 41.9367C96.3501 41.9367 98.4997 39.8135 98.4997 37.1944C98.4997 34.5753 96.3501 32.4521 93.6984 32.4521C91.0467 32.4521 88.8971 34.5753 88.8971 37.1944C88.8971 39.8135 91.0467 41.9367 93.6984 41.9367Z" fill="#A0616A"/>
<path d="M94.6279 78.7686C92.5293 78.7624 90.4409 78.4805 88.4176 77.9302C88.2229 77.8743 88.0537 77.7537 87.9385 77.5889C87.8233 77.424 87.7691 77.225 87.7851 77.0254C88.4314 67.4305 88.5834 59.9846 87.2242 54.8327C86.6449 52.637 86.9079 50.3245 87.9458 48.4881C89.5077 45.7245 92.3785 44.0425 95.4407 44.1006C95.587 44.1033 95.7348 44.1085 95.8841 44.116C100.531 44.3524 104.153 48.5049 103.956 53.3727L103.022 76.5751C103.018 76.7444 102.964 76.9088 102.866 77.0478C102.768 77.1868 102.631 77.294 102.471 77.3559C99.9638 78.2876 97.307 78.7661 94.6279 78.7686Z" fill="#535D6A"/>
<path d="M88.0143 56.614L84.4179 52.2611C84.3155 52.1372 84.2414 51.993 84.2006 51.8383C84.1598 51.6837 84.1532 51.5221 84.1813 51.3647C84.2094 51.2072 84.2715 51.0576 84.3634 50.926C84.4553 50.7945 84.5748 50.684 84.7139 50.6021L89.5856 47.7349C90.2302 47.2212 91.0546 46.981 91.8782 47.0669C92.7018 47.1528 93.4572 47.5577 93.979 48.193C94.5007 48.8282 94.746 49.6419 94.6613 50.4556C94.5765 51.2692 94.1684 52.0165 93.5267 52.5335L89.7191 56.6602C89.6101 56.7783 89.4765 56.8718 89.3276 56.9344C89.1786 56.9969 89.0178 57.0271 88.856 57.0227C88.6942 57.0183 88.5353 56.9795 88.39 56.909C88.2448 56.8385 88.1166 56.7379 88.0143 56.614Z" fill="#535D6A"/>
<path d="M99.328 56.0677C99.1803 56.0024 99.0485 55.9064 98.9418 55.7863C98.835 55.6661 98.7558 55.5246 98.7095 55.3714L97.0905 50.022C96.739 49.2813 96.6993 48.4331 96.9801 47.6635C97.261 46.8939 97.8393 46.2658 98.5884 45.9168C99.3375 45.5678 100.196 45.5265 100.976 45.802C101.756 46.0775 102.393 46.6472 102.748 47.3862L105.879 52.0565C105.969 52.1898 106.028 52.3406 106.053 52.4985C106.078 52.6564 106.068 52.8178 106.025 52.9717C105.981 53.1256 105.904 53.2684 105.799 53.3903C105.694 53.5122 105.564 53.6104 105.418 53.6781L100.266 56.06C100.119 56.1279 99.9597 56.1637 99.7978 56.165C99.6359 56.1663 99.4757 56.1331 99.328 56.0677Z" fill="#535D6A"/>
<path d="M96.071 41.0859L92.512 40.2813C92.1449 40.1983 91.7038 40.04 91.6529 39.6714C91.5845 39.1761 92.3061 38.8311 92.2395 38.3356C92.1751 37.8556 91.5177 37.7938 91.049 37.6521C90.6124 37.5008 90.2526 37.1878 90.0456 36.7791C89.8387 36.3704 89.8008 35.8982 89.9401 35.4625C89.433 36.1684 88.2743 36.2289 87.6165 35.657C86.9587 35.085 86.8325 34.0474 87.2275 33.2748C87.4409 32.8952 87.742 32.5708 88.1063 32.3279C88.4706 32.085 88.8878 31.9304 89.3239 31.8767C90.2009 31.7785 91.0875 31.9418 91.8697 32.3455C91.9219 31.7984 92.6134 31.5767 93.1697 31.5718C94.3253 31.5851 95.448 31.9539 96.3815 32.6268C97.315 33.2998 98.0129 34.2435 98.378 35.3265C99.0607 37.4991 98.6041 39.8806 96.6941 41.1518L96.071 41.0859Z" fill="#2F2E41"/>
<path d="M131.919 109.298H57.439C57.3871 109.298 57.3374 109.278 57.3007 109.242C57.2641 109.206 57.2435 109.156 57.2435 109.105C57.2435 109.054 57.2641 109.005 57.3007 108.969C57.3374 108.932 57.3871 108.912 57.439 108.912H131.919C131.971 108.912 132.02 108.932 132.057 108.969C132.094 109.005 132.114 109.054 132.114 109.105C132.114 109.156 132.094 109.206 132.057 109.242C132.02 109.278 131.971 109.298 131.919 109.298Z" fill="#3F3D56"/>
</g>
<defs>
<clipPath id="clip0_71_650">
<rect width="166.772" height="109.091" fill="white" transform="translate(0.301147 0.207031)"/>
</clipPath>
</defs>
</svg>
