<svg width="110" height="119" viewBox="0 0 110 119" fill="none" xmlns="http://www.w3.org/2000/svg">
<g clip-path="url(#clip0_71_317)">
<path d="M100.127 101.569L95.1611 106.335L99.1073 99.4315C95.9983 93.5536 90.9136 88.4736 90.9136 88.4736C90.9136 88.4736 80.3647 99.0107 80.3647 107.293C80.3647 115.576 85.0876 118.468 90.9136 118.468C96.7396 118.468 101.462 115.576 101.462 107.293C101.462 105.45 100.939 103.495 100.127 101.569Z" fill="#F2F2F2"/>
<path d="M93.8843 106.593V107.001C93.861 111.747 93.0933 115.449 91.587 118.057C91.5657 118.095 91.5425 118.131 91.5211 118.17L91.3525 118.063L91.1916 117.958C92.8626 115.142 93.4539 111.162 93.4752 107.023C93.4772 106.89 93.4791 106.754 93.4772 106.619C93.4714 104.867 93.3686 103.094 93.2038 101.372C93.1922 101.239 93.1786 101.103 93.1651 100.968C92.9363 98.6959 92.6067 96.5252 92.2694 94.6395C92.2462 94.5061 92.221 94.3727 92.1958 94.2413C91.6122 91.0519 91.0171 88.7418 90.8814 88.2304C90.8659 88.1678 90.8562 88.1334 90.8542 88.1253L91.0384 88.0708L91.0404 88.0687L91.2265 88.0142C91.2284 88.0222 91.2614 88.1375 91.3156 88.3517C91.5231 89.1521 92.062 91.3248 92.5912 94.1908C92.6145 94.3202 92.6397 94.4536 92.663 94.5869C92.9382 96.117 93.2077 97.8268 93.421 99.6216C93.4752 100.072 93.5237 100.517 93.5663 100.956C93.5819 101.091 93.5954 101.226 93.6071 101.36C93.7854 103.221 93.8778 104.966 93.8843 106.593Z" fill="white"/>
<path d="M92.5912 94.1907C92.4614 94.2089 92.3295 94.227 92.1958 94.2412C91.8325 94.2802 91.4676 94.2997 91.1024 94.2998C89.5461 94.302 88.0092 93.94 86.6048 93.2407C86.5234 93.3478 86.442 93.455 86.3586 93.5641C87.8359 94.3159 89.4585 94.7058 91.1024 94.704C91.4922 94.7039 91.8818 94.6823 92.2694 94.6394C92.4013 94.6252 92.5331 94.607 92.663 94.5868C93.7351 94.4265 94.7777 94.0973 95.755 93.6106C95.6717 93.4994 95.5903 93.3903 95.5108 93.2832C94.5858 93.7339 93.602 94.0397 92.5912 94.1907Z" fill="white"/>
<path d="M93.5664 100.956C93.4326 100.964 93.2988 100.968 93.1651 100.968C93.1244 100.97 93.0817 100.97 93.041 100.97C91.3547 100.97 89.6933 100.545 88.1986 99.7307C86.7039 98.9167 85.4202 97.738 84.4569 96.2949C84.3793 96.4142 84.3018 96.5334 84.2262 96.6547C85.2303 98.1148 86.5536 99.3045 88.0865 100.125C89.6194 100.946 91.3178 101.374 93.041 101.374C93.0953 101.374 93.1496 101.374 93.2039 101.372C93.3395 101.37 93.4733 101.366 93.6071 101.36C95.6769 101.249 97.6724 100.52 99.355 99.2579C99.293 99.1387 99.231 99.0194 99.167 98.9002C97.5317 100.139 95.5853 100.853 93.5664 100.956Z" fill="white"/>
<path d="M93.8842 106.593C93.7485 106.605 93.6128 106.613 93.4771 106.619C93.3317 106.625 93.1863 106.629 93.0409 106.629C90.7749 106.626 88.5707 105.858 86.7584 104.44C84.946 103.022 83.623 101.03 82.9873 98.7627C82.9001 98.9264 82.8129 99.0881 82.7295 99.2518C83.4457 101.514 84.8275 103.484 86.6785 104.881C88.5296 106.277 90.7558 107.031 93.0409 107.033C93.1863 107.033 93.3317 107.031 93.4752 107.023C93.6128 107.019 93.7485 107.011 93.8842 107.001C96.6252 106.777 99.1823 105.476 101.038 103.361C100.997 103.211 100.95 103.064 100.904 102.914C99.1118 105.045 96.5939 106.365 93.8842 106.593Z" fill="white"/>
<path d="M82.2707 26.3011L28.2636 19.1225C28.1181 19.103 27.9715 19.0931 27.8249 19.0928C27.6803 19.0925 27.5358 19.102 27.3924 19.1212C27.2493 19.1404 27.1075 19.1694 26.968 19.2079C26.8268 19.2472 26.6882 19.2959 26.5531 19.3538C26.4207 19.4105 26.2917 19.4755 26.1669 19.5485C26.0403 19.622 25.9181 19.7032 25.8007 19.7918C25.6807 19.8826 25.5657 19.9805 25.4563 20.0849C25.3433 20.1924 25.236 20.3061 25.1347 20.4256C25.0308 20.5486 24.9329 20.677 24.8416 20.8104C24.7493 20.9456 24.6628 21.0861 24.5819 21.2321C24.501 21.3785 24.4259 21.5308 24.3567 21.689C24.2875 21.8471 24.2243 22.0106 24.1672 22.1795C24.1081 22.354 24.0563 22.5324 24.0118 22.7147C23.9673 22.897 23.9301 23.0825 23.9002 23.2711C23.871 23.4596 23.8486 23.6512 23.833 23.8458C23.8175 24.0404 23.8097 24.2374 23.8097 24.4368C23.8103 24.636 23.8181 24.8345 23.833 25.0324C23.848 25.2302 23.8704 25.4265 23.9002 25.6211C23.9304 25.8166 23.9678 26.0101 24.0122 26.2016C24.0567 26.3932 24.1085 26.5826 24.1677 26.7697C24.2248 26.9506 24.2879 27.1273 24.3571 27.2999C24.4264 27.4726 24.5014 27.6407 24.5823 27.804C24.6632 27.9673 24.7498 28.126 24.8421 28.2799C24.9342 28.4345 25.0319 28.5832 25.1352 28.7261C25.2385 28.869 25.3457 29.0053 25.4567 29.1351C25.5678 29.264 25.6826 29.3857 25.8012 29.5C25.9197 29.6144 26.0418 29.7212 26.1673 29.8204C26.2915 29.9187 26.4204 30.0103 26.5535 30.0949C26.6876 30.1801 26.8261 30.2576 26.9684 30.3267C27.1065 30.3938 27.2482 30.4524 27.3929 30.5021C27.5346 30.5509 27.679 30.5906 27.8253 30.6211C27.9702 30.6512 28.1167 30.6719 28.264 30.6832L82.2712 34.8019C82.4283 34.8138 82.5862 34.7974 82.7379 34.7532C82.8151 34.7308 82.8904 34.7019 82.9631 34.6666C83.039 34.6298 83.112 34.5871 83.1817 34.5389C83.2524 34.49 83.3199 34.4364 83.3838 34.3783C83.4509 34.3174 83.5145 34.2524 83.5743 34.1837C83.6374 34.1111 83.6968 34.0351 83.7523 33.956C83.8097 33.8745 83.8649 33.7878 83.9178 33.6956C83.9707 33.6035 84.0207 33.5074 84.0678 33.4073C84.1149 33.3073 84.1591 33.2033 84.2001 33.0954C84.2414 32.9877 84.2795 32.8763 84.3145 32.7611C84.3495 32.646 84.3814 32.5274 84.4101 32.4054C84.4405 32.2792 84.4666 32.1508 84.4886 32.0201C84.5105 31.8893 84.5292 31.7566 84.5448 31.622C84.5599 31.4874 84.5712 31.351 84.5786 31.2128C84.5861 31.0746 84.5898 30.9349 84.5898 30.7936C84.5894 30.6525 84.5856 30.512 84.5786 30.3722C84.5716 30.2324 84.5604 30.0936 84.5448 29.9559C84.5297 29.8182 84.511 29.6817 84.4886 29.5462C84.4662 29.4108 84.44 29.2768 84.4101 29.1443C84.3814 29.0162 84.3495 28.8909 84.3145 28.7686C84.2798 28.648 84.2417 28.5291 84.2001 28.412C84.1586 28.2949 84.1145 28.1813 84.0678 28.0714C84.0208 27.9616 83.9708 27.855 83.9178 27.7517C83.8647 27.6484 83.8096 27.5501 83.7523 27.4568C83.6951 27.3635 83.6357 27.2751 83.5743 27.1916C83.5128 27.1081 83.4493 27.0299 83.3838 26.9571C83.32 26.8857 83.2525 26.818 83.1817 26.7542C83.1124 26.6916 83.0394 26.6337 82.9631 26.5807C82.8911 26.5306 82.8159 26.4859 82.7379 26.4469C82.6633 26.4096 82.5861 26.3783 82.5069 26.3534C82.4297 26.3293 82.3507 26.3118 82.2707 26.3011Z" fill="#FF9212"/>
<path d="M82.2707 42.4918L28.2636 41.1432C27.9706 41.1356 27.6779 41.1668 27.3924 41.2359C27.2484 41.2708 27.1067 41.3151 26.968 41.3685C26.8261 41.423 26.6876 41.4864 26.5531 41.5583C26.4202 41.6292 26.2913 41.7078 26.1668 41.7938C26.04 41.8813 25.9178 41.976 25.8007 42.0772C25.6806 42.1811 25.5656 42.2914 25.4563 42.4076C25.345 42.5257 25.2378 42.6512 25.1347 42.7842C25.0316 42.9175 24.9339 43.0565 24.8416 43.201C24.7493 43.3455 24.6628 43.4954 24.5819 43.6506C24.501 43.8058 24.4259 43.9662 24.3567 44.1318C24.2875 44.2974 24.2243 44.4677 24.1672 44.6427C24.1081 44.8239 24.0563 45.008 24.0118 45.195C23.9673 45.382 23.9301 45.5715 23.9002 45.7634C23.871 45.9553 23.8486 46.1493 23.833 46.3456C23.8175 46.5418 23.8097 46.7396 23.8097 46.939C23.8103 47.1383 23.8181 47.336 23.833 47.5321C23.848 47.7282 23.8704 47.9221 23.9002 48.1139C23.9304 48.3046 23.9678 48.4933 24.0122 48.68C24.0567 48.8667 24.1085 49.0505 24.1677 49.2313C24.2247 49.4068 24.2879 49.5771 24.3571 49.7422C24.4264 49.9074 24.5014 50.0673 24.5823 50.222C24.6632 50.3768 24.7498 50.5261 24.8421 50.6699C24.9342 50.8133 25.0319 50.9512 25.1352 51.0835C25.2385 51.2159 25.3457 51.3407 25.4567 51.458C25.5661 51.5735 25.681 51.683 25.8012 51.7862C25.9183 51.8866 26.0405 51.9804 26.1673 52.0672C26.2918 52.1522 26.4207 52.23 26.5535 52.3C26.6881 52.371 26.8266 52.4335 26.9684 52.4871C27.1072 52.5395 27.249 52.5828 27.3929 52.6168C27.5354 52.6506 27.6799 52.675 27.8253 52.6898C27.9711 52.7043 28.1176 52.7093 28.264 52.7046L82.2707 50.9916C82.3501 50.989 82.4291 50.9795 82.5069 50.9631C82.5856 50.9464 82.6629 50.9231 82.7379 50.8933C82.8156 50.8623 82.8908 50.8252 82.9631 50.7823C83.0392 50.7372 83.1123 50.6866 83.1817 50.631C83.2525 50.5744 83.32 50.5134 83.3838 50.4485C83.4509 50.3804 83.5145 50.3086 83.5743 50.2335C83.6355 50.1569 83.6949 50.0746 83.7523 49.9865C83.8097 49.8984 83.8649 49.8057 83.9178 49.7084C83.9706 49.6105 84.0207 49.5089 84.0678 49.4038C84.1149 49.2987 84.159 49.19 84.2001 49.0778C84.2413 48.9638 84.2795 48.8477 84.3145 48.7296C84.3495 48.6116 84.3814 48.4899 84.4101 48.3647C84.4405 48.2366 84.4666 48.1059 84.4886 47.9728C84.5105 47.8396 84.5292 47.7049 84.5448 47.5686C84.5599 47.4319 84.5712 47.294 84.5786 47.155C84.5861 47.016 84.5898 46.8759 84.5898 46.7346C84.5894 46.5946 84.5856 46.4548 84.5786 46.3152C84.5716 46.1755 84.5603 46.0377 84.5448 45.9016C84.5297 45.765 84.511 45.6305 84.4886 45.498C84.4662 45.3654 84.44 45.2343 84.4101 45.1045C84.3812 44.9793 84.3492 44.8574 84.3142 44.7386C84.2792 44.6199 84.2412 44.5046 84.2001 44.3927C84.1592 44.2807 84.1152 44.1723 84.068 44.0674C84.0209 43.9624 83.9709 43.8613 83.918 43.764C83.8649 43.6665 83.8098 43.574 83.7525 43.4866C83.6953 43.3992 83.6359 43.3172 83.5745 43.2407C83.5147 43.1659 83.4512 43.0945 83.3841 43.0268C83.3202 42.9623 83.2527 42.9019 83.182 42.8458C83.1125 42.7906 83.0394 42.7406 82.9633 42.6959C82.891 42.6536 82.8156 42.6172 82.7379 42.5869C82.6628 42.5576 82.5856 42.5347 82.5069 42.5186C82.429 42.5027 82.35 42.4937 82.2707 42.4918Z" fill="#E4E4E4"/>
<path d="M82.2707 57.6703L28.2636 61.7883C28.1162 61.7995 27.9697 61.8202 27.8249 61.8503C27.6785 61.8808 27.5341 61.9205 27.3924 61.9693C27.2478 62.0191 27.106 62.0776 26.968 62.1447C26.8256 62.2139 26.6871 62.2913 26.5531 62.3766C26.4199 62.4612 26.291 62.5528 26.1669 62.651C26.0412 62.7511 25.9191 62.8579 25.8007 62.9714C25.6823 63.0855 25.5675 63.2071 25.4563 63.3364C25.345 63.4657 25.2378 63.602 25.1347 63.7454C25.0316 63.8892 24.9339 64.0381 24.8416 64.1921C24.7493 64.346 24.6628 64.5046 24.5819 64.6679C24.501 64.8314 24.4259 64.9995 24.3567 65.1721C24.2875 65.3446 24.2243 65.5214 24.1672 65.7022C24.1081 65.8891 24.0563 66.0784 24.0118 66.2703C23.9673 66.4622 23.9301 66.6554 23.9002 66.8501C23.871 67.045 23.8486 67.2414 23.833 67.4391C23.8175 67.6368 23.8097 67.8353 23.8097 68.0347C23.8103 68.234 23.8181 68.431 23.833 68.6256C23.848 68.8203 23.8704 69.0119 23.9002 69.2006C23.9304 69.3897 23.9678 69.5752 24.0122 69.7572C24.0567 69.9392 24.1085 70.1176 24.1677 70.2925C24.2248 70.4615 24.2879 70.625 24.3571 70.783C24.4264 70.9411 24.5014 71.0934 24.5823 71.2399C24.6632 71.3863 24.7498 71.5269 24.8421 71.6615C24.9334 71.7949 25.0312 71.9234 25.1352 72.0464C25.2364 72.1658 25.3438 72.2795 25.4567 72.387C25.5661 72.4914 25.6811 72.5893 25.8012 72.6802C25.9185 72.7687 26.0408 72.85 26.1673 72.9235C26.2922 72.9964 26.4211 73.0614 26.5535 73.1181C26.6887 73.176 26.8273 73.2248 26.9684 73.2641C27.108 73.3026 27.2498 73.3315 27.3929 73.3507C27.5363 73.3699 27.6808 73.3794 27.8253 73.3792C27.972 73.3788 28.1185 73.3689 28.264 73.3495L82.2707 66.1725C82.3507 66.1618 82.4297 66.1443 82.5069 66.1202C82.5861 66.0953 82.6633 66.0641 82.7379 66.0268C82.8159 65.9877 82.8911 65.943 82.9631 65.8929C83.0394 65.8399 83.1124 65.782 83.1817 65.7195C83.2525 65.6557 83.32 65.5879 83.3838 65.5166C83.4486 65.4436 83.512 65.3654 83.5743 65.282C83.6356 65.1987 83.6949 65.1103 83.7523 65.0168C83.8097 64.9234 83.8649 64.8251 83.9178 64.722C83.9707 64.6195 84.0207 64.5129 84.0678 64.4023C84.1149 64.2917 84.1591 64.1781 84.2001 64.0617C84.2414 63.9447 84.2795 63.8251 84.3145 63.7028C84.3495 63.5805 84.3814 63.4553 84.4101 63.3272C84.4405 63.1945 84.4666 63.0604 84.4886 62.925C84.5105 62.7896 84.5292 62.653 84.5448 62.5153C84.5599 62.3776 84.5712 62.2388 84.5786 62.099C84.5861 61.9592 84.5898 61.8186 84.5898 61.6774C84.5892 61.5369 84.5854 61.3976 84.5784 61.2594C84.5714 61.1212 84.5601 60.9848 84.5446 60.8502C84.5296 60.7151 84.511 60.5821 84.4885 60.4514C84.4661 60.3207 84.44 60.1922 84.4101 60.066C84.3814 59.9439 84.3495 59.8253 84.3145 59.7103C84.2799 59.5953 84.2419 59.4839 84.2004 59.376C84.1588 59.2682 84.1147 59.1642 84.068 59.0641C84.0206 58.9648 83.9703 58.869 83.9173 58.7765C83.8642 58.6841 83.8091 58.5973 83.7518 58.5162C83.6964 58.4371 83.6369 58.3611 83.5738 58.2885C83.514 58.2198 83.4505 58.1548 83.3834 58.0939C83.3194 58.0358 83.2519 57.9822 83.1813 57.9333C83.1116 57.885 83.0385 57.8423 82.9626 57.8055C82.89 57.7703 82.8146 57.7413 82.7374 57.7189C82.5857 57.6748 82.4278 57.6584 82.2707 57.6703Z" fill="#E4E4E4"/>
<path d="M52.8339 58.4248C53.176 59.0178 53.7151 59.4592 54.3488 59.6651C54.9824 59.8711 55.6666 59.8273 56.2713 59.5421C56.8761 59.2569 57.3593 58.7501 57.6293 58.1179C57.8993 57.4857 57.9373 56.7721 57.736 56.1127L68.2031 33.693L63.1928 30.5264L54.1532 54.3407C54.1187 54.3547 54.0847 54.3693 54.0512 54.3847C54.0177 54.4 53.9843 54.416 53.951 54.4327C53.9178 54.4494 53.8848 54.467 53.852 54.4854C53.8193 54.5039 53.7867 54.5233 53.7545 54.5436C53.1388 54.931 52.696 55.5575 52.5233 56.2853C52.3507 57.013 52.4623 57.7825 52.8337 58.4245L52.8339 58.4248Z" fill="#9E616A"/>
<path d="M66.205 42.3385L58.769 40.3515C58.769 40.3515 59.0118 39.7793 59.4064 38.8313C59.801 37.8834 60.3523 36.5615 60.9725 35.0608C61.5926 33.56 62.2807 31.8831 62.9528 30.2255C63.6248 28.568 64.2784 26.9302 64.8289 25.5107C65.3794 24.0912 66.0048 23.241 66.6333 22.7645C67.1535 22.3523 67.8087 22.1708 68.4566 22.2592C68.9601 22.3374 69.4414 22.5284 69.8674 22.8191C70.069 22.9499 70.2586 23.0999 70.4337 23.2672L72.1578 26.5361L66.205 42.3385Z" fill="#CCCCCC"/>
<path d="M6.69533 40.5631C6.51526 40.5769 6.33607 40.6013 6.15861 40.636C5.98 40.6709 5.8034 40.7161 5.62959 40.7713C5.45313 40.8275 5.27972 40.8936 5.11013 40.9694C4.93655 41.0468 4.76699 41.1337 4.60211 41.2297C4.44078 41.3242 4.28311 41.4271 4.12909 41.5382C3.97507 41.6493 3.82549 41.7687 3.68034 41.8963C3.53535 42.0236 3.39463 42.1594 3.25819 42.3036C3.12176 42.4478 2.9903 42.5998 2.86382 42.7598C2.73734 42.9197 2.61747 43.0854 2.50421 43.2568C2.39095 43.4283 2.2847 43.6049 2.18544 43.7867C2.08712 43.9689 1.99517 44.156 1.90961 44.348C1.82405 44.54 1.74626 44.7365 1.67625 44.9375C1.60329 45.1459 1.53943 45.3565 1.48467 45.5693C1.4299 45.7821 1.38424 45.9967 1.34768 46.2131C1.31097 46.4295 1.28343 46.6473 1.26508 46.8666C1.24672 47.0859 1.23754 47.3061 1.23755 47.5271C1.23755 47.7482 1.24672 47.9665 1.26508 48.1818C1.28343 48.3972 1.31096 48.6093 1.34768 48.8181C1.38424 49.0268 1.4299 49.2318 1.48467 49.4331C1.53943 49.6344 1.60306 49.8316 1.67556 50.0246C1.74618 50.2109 1.82397 50.3912 1.90891 50.5654C1.99287 50.7378 2.08509 50.9058 2.18521 51.0686C2.28376 51.2283 2.39016 51.3825 2.50398 51.5308C2.61671 51.6782 2.73683 51.8193 2.86382 51.9534C2.98871 52.0853 3.12036 52.2101 3.25819 52.3271C3.39316 52.4417 3.53417 52.5484 3.68057 52.6466C3.96948 52.8404 4.27876 52.9991 4.60234 53.1195C4.93405 53.2431 5.27876 53.3248 5.62912 53.3628C5.80485 53.3817 5.9815 53.3899 6.15814 53.3872C6.33763 53.3845 6.51682 53.3713 6.69487 53.3475C6.87451 53.3236 7.05276 53.2895 7.22879 53.2451C7.40535 53.2006 7.57946 53.1461 7.75035 53.0818C7.92318 53.0168 8.0926 52.9424 8.2579 52.8587C8.42634 52.7735 8.59052 52.6795 8.74983 52.577C8.90493 52.4761 9.05599 52.3679 9.20301 52.2524C9.35002 52.137 9.49245 52.0138 9.63029 51.8831C9.76812 51.7524 9.90121 51.6145 10.0296 51.4695C10.1579 51.3245 10.2813 51.1724 10.3997 51.0131C10.5188 50.854 10.631 50.6901 10.7362 50.5214C10.8413 50.3527 10.9398 50.1796 11.0316 50.002C11.1234 49.8243 11.2083 49.6426 11.2864 49.4567C11.3645 49.2709 11.4357 49.0811 11.5 48.8874C11.5666 48.6869 11.6248 48.4848 11.6748 48.2809C11.7247 48.077 11.7664 47.8717 11.7998 47.6649C11.8331 47.4579 11.8582 47.2499 11.875 47.0408C11.8918 46.8317 11.9002 46.6218 11.9002 46.4109C11.9 46.2001 11.8916 45.9918 11.875 45.7861C11.8583 45.5805 11.8333 45.3777 11.7998 45.1779C11.7665 44.9784 11.7248 44.7818 11.6748 44.5881C11.6247 44.3945 11.5664 44.2045 11.5 44.0181C11.4354 43.8377 11.3642 43.6628 11.2864 43.4933C11.2076 43.3243 11.1222 43.1603 11.0304 43.0014C10.8487 42.6872 10.6374 42.3928 10.3997 42.1223C10.283 41.9893 10.1598 41.8627 10.0305 41.743C9.9032 41.6256 9.76992 41.5154 9.63123 41.4129C9.49386 41.3114 9.35122 41.2179 9.20395 41.1328C9.05678 41.0479 8.90517 40.9715 8.74983 40.9042C8.4291 40.7649 8.09369 40.6656 7.75059 40.6085C7.5779 40.5798 7.40375 40.5617 7.22903 40.5543C7.05104 40.5468 6.87277 40.5499 6.69511 40.5635" fill="#E4E4E4"/>
<path d="M6.69533 63.4327C6.51526 63.4465 6.33607 63.4709 6.15861 63.5057C5.98001 63.5405 5.8034 63.5857 5.62959 63.6409C5.45313 63.6971 5.27972 63.7632 5.11013 63.839C4.93655 63.9165 4.76699 64.0034 4.60211 64.0993C4.44078 64.1939 4.28311 64.2967 4.12909 64.4078C3.97507 64.5189 3.82549 64.6383 3.68034 64.7659C3.53535 64.8933 3.39463 65.029 3.25819 65.1732C3.12176 65.3174 2.9903 65.4695 2.86382 65.6294C2.73734 65.7893 2.61747 65.955 2.50421 66.1265C2.39095 66.2979 2.2847 66.4745 2.18544 66.6563C2.08712 66.8385 1.99517 67.0256 1.90961 67.2176C1.82405 67.4097 1.74626 67.6062 1.67625 67.8071C1.60329 68.0156 1.53943 68.2262 1.48467 68.439C1.4299 68.6518 1.38424 68.8664 1.34768 69.0827C1.31097 69.2991 1.28343 69.5169 1.26508 69.7362C1.24672 69.9555 1.23754 70.1757 1.23755 70.3968C1.23755 70.6178 1.24672 70.8361 1.26508 71.0515C1.28343 71.2669 1.31096 71.4789 1.34768 71.6877C1.38424 71.8964 1.4299 72.1015 1.48467 72.3027C1.53943 72.504 1.60306 72.7012 1.67556 72.8942C1.74618 73.0806 1.82397 73.2608 1.90891 73.4351C1.99287 73.6075 2.08509 73.7754 2.18521 73.9382C2.28376 74.0979 2.39016 74.2522 2.50398 74.4004C2.61671 74.5478 2.73683 74.6889 2.86382 74.823C2.98871 74.9549 3.12036 75.0797 3.25819 75.1968C3.39316 75.3114 3.53417 75.418 3.68057 75.5162C3.96948 75.7101 4.27876 75.8688 4.60234 75.9892C4.93405 76.1127 5.27876 76.1944 5.62912 76.2325C5.80485 76.2514 5.9815 76.2595 6.15814 76.2568C6.33763 76.2542 6.51682 76.2409 6.69487 76.2171C6.87451 76.1933 7.05276 76.1591 7.22879 76.1147C7.40535 76.0702 7.57946 76.0157 7.75035 75.9515C7.92318 75.8864 8.0926 75.812 8.2579 75.7284C8.42634 75.6432 8.59052 75.5491 8.74983 75.4466C8.90493 75.3457 9.05599 75.2375 9.20301 75.1221C9.35002 75.0066 9.49245 74.8835 9.63029 74.7527C9.76812 74.622 9.90121 74.4841 10.0296 74.3391C10.1579 74.1941 10.2813 74.042 10.3997 73.8827C10.5188 73.7236 10.631 73.5597 10.7362 73.391C10.8413 73.2223 10.9398 73.0492 11.0316 72.8716C11.1234 72.694 11.2083 72.5122 11.2864 72.3264C11.3645 72.1405 11.4357 71.9507 11.5 71.757C11.5666 71.5566 11.6248 71.3544 11.6748 71.1505C11.7247 70.9466 11.7664 70.7413 11.7998 70.5345C11.8331 70.3275 11.8582 70.1195 11.875 69.9104C11.8918 69.7014 11.9002 69.4914 11.9002 69.2805C11.9 69.0697 11.8916 68.8614 11.875 68.6558C11.8583 68.4501 11.8333 68.2473 11.7998 68.0475C11.7665 67.848 11.7248 67.6514 11.6748 67.4578C11.6247 67.2641 11.5664 67.0741 11.5 66.8877C11.4354 66.7074 11.3642 66.5324 11.2864 66.3629C11.2076 66.1939 11.1222 66.0299 11.0304 65.871C10.8487 65.5568 10.6374 65.2624 10.3997 64.992C10.283 64.859 10.1598 64.7324 10.0305 64.6127C9.9032 64.4952 9.76992 64.385 9.63123 64.2825C9.49386 64.181 9.35122 64.0875 9.20395 64.0025C9.05678 63.9175 8.90517 63.8411 8.74983 63.7738C8.4291 63.6345 8.09369 63.5353 7.75059 63.4782C7.5779 63.4495 7.40376 63.4314 7.22903 63.4239C7.05104 63.4164 6.87277 63.4195 6.69511 63.4332" fill="#E4E4E4"/>
<path d="M6.69631 15.7874C6.51722 15.7828 6.33802 15.7889 6.15959 15.8056C5.98189 15.8223 5.80526 15.8495 5.63057 15.8874C5.45488 15.9256 5.28144 15.9744 5.11111 16.0333C4.93815 16.093 4.76855 16.1628 4.60309 16.2423C4.44114 16.3201 4.28324 16.4067 4.13007 16.5019C3.97538 16.598 3.8256 16.7025 3.68132 16.8148C3.53471 16.9289 3.39374 17.0507 3.25894 17.1797C3.12188 17.3109 2.99019 17.45 2.86387 17.597C2.73739 17.7441 2.61752 17.8977 2.50426 18.0578C2.391 18.2179 2.28474 18.3838 2.18549 18.5556C2.0867 18.7296 1.99452 18.9079 1.90896 19.0906C1.82339 19.2732 1.74561 19.4618 1.6756 19.6565C1.6031 19.8571 1.53947 20.0611 1.48471 20.2684C1.42995 20.4757 1.38429 20.6856 1.34773 20.8983C1.31101 21.1115 1.28348 21.3266 1.26512 21.5435C1.24676 21.7603 1.23759 21.9793 1.23759 22.2004C1.23759 22.4211 1.24677 22.6401 1.26512 22.8573C1.28347 23.0745 1.31101 23.2893 1.34773 23.5018C1.38429 23.7142 1.42995 23.9239 1.48471 24.1307C1.53947 24.3375 1.6031 24.541 1.6756 24.7414C1.74623 24.9349 1.82401 25.123 1.90896 25.3058C1.99452 25.4879 2.08693 25.6647 2.18617 25.8359C2.28542 26.0072 2.39168 26.1724 2.50495 26.3315C2.61805 26.4911 2.73792 26.6439 2.86455 26.7899C2.99119 26.9359 3.12265 27.0738 3.25893 27.2035C3.39302 27.332 3.53329 27.4533 3.67921 27.567C3.82351 27.6783 3.9733 27.7817 4.12796 27.8767C4.28116 27.9709 4.43906 28.0565 4.60098 28.1331C4.76648 28.2116 4.93609 28.2802 5.109 28.3387C5.44925 28.4535 5.80107 28.527 6.15748 28.5577C6.51436 28.5885 6.87346 28.5772 7.2279 28.5239C7.40362 28.4974 7.57775 28.4605 7.74946 28.4134C7.9216 28.3661 8.09104 28.3088 8.25701 28.2417C8.42492 28.1738 8.58914 28.0964 8.74893 28.0098C8.90475 27.9254 9.05632 27.8328 9.20305 27.7322C9.35062 27.631 9.49323 27.5221 9.63033 27.4059C9.76816 27.2891 9.90125 27.1647 10.0296 27.0327C10.1579 26.9007 10.2813 26.761 10.3997 26.6138C10.5189 26.4665 10.631 26.3139 10.7362 26.1559C10.8414 25.9979 10.9399 25.8347 11.0317 25.6664C11.1238 25.498 11.2087 25.3249 11.2865 25.1469C11.3643 24.969 11.4354 24.7868 11.5 24.6002C11.5666 24.4066 11.6249 24.2103 11.6748 24.0115C11.7247 23.8126 11.7664 23.6115 11.7999 23.4081C11.8332 23.2039 11.8582 22.9981 11.875 22.7906C11.8918 22.5832 11.9002 22.374 11.9002 22.1631C11.9001 21.9525 11.8917 21.7434 11.875 21.5359C11.8584 21.3285 11.8333 21.1232 11.7999 20.9202C11.7666 20.7169 11.7249 20.516 11.6748 20.3173C11.6247 20.1186 11.5664 19.9226 11.5 19.7295C11.4354 19.5428 11.3643 19.3607 11.2865 19.1833C11.2087 19.0058 11.1234 18.833 11.0305 18.6648C10.9387 18.4981 10.8402 18.3359 10.735 18.1782C10.6299 18.0206 10.5181 17.8687 10.3997 17.7228C10.2821 17.5769 10.159 17.4383 10.0305 17.307C9.90203 17.1756 9.76893 17.0521 9.63126 16.9364C9.49424 16.821 9.35171 16.7128 9.20421 16.6124C9.05747 16.5127 8.9059 16.421 8.75009 16.3377C8.59027 16.2521 8.42605 16.1758 8.25817 16.109C8.09216 16.043 7.92271 15.9867 7.75062 15.9406C7.57886 15.8946 7.40472 15.8589 7.22906 15.8336C7.05204 15.8081 6.87378 15.7932 6.69514 15.7888M6.69514 15.1801C7.47905 15.2025 8.24789 15.4099 8.94378 15.7869C9.63533 16.1639 10.2483 16.6801 10.7472 17.3058C11.2687 17.9578 11.6748 18.7012 11.9466 19.5015C12.5288 21.224 12.5288 23.1021 11.9466 24.8246C11.6745 25.6271 11.2685 26.3732 10.7472 27.0283C10.2482 27.6569 9.63533 28.1769 8.94355 28.5584C8.24857 28.9399 7.47985 29.1525 6.69491 29.1805C5.90512 29.2075 5.12 29.0444 4.40052 28.7037C3.67419 28.3568 3.0244 27.8573 2.49188 27.2364C1.92639 26.5788 1.48381 25.8169 1.18694 24.9898C0.54397 23.1892 0.54397 21.2075 1.18694 19.4069C1.4841 18.5773 1.9266 17.8125 2.49188 17.1515C3.02424 16.5271 3.67386 16.0233 4.40052 15.6713C5.11944 15.3258 5.90497 15.1574 6.69631 15.1791L6.69514 15.1801Z" fill="#FF9212"/>
<path d="M6.69583 23.9013L4.85767 19.9088L5.29405 19.6125L6.80807 22.8924L13.1652 15.1021L13.55 15.5295L6.69583 23.9013Z" fill="#FF9212"/>
<path d="M73.5942 102.724L69.0437 102.705L70.5111 115.102L73.5942 115.118V102.724Z" fill="#9E616A"/>
<path d="M74.3804 118.237L64.4445 118.182V118.051C64.4443 117.785 64.4691 117.52 64.5187 117.259C64.6164 116.745 64.8111 116.256 65.0916 115.82C65.3764 115.379 65.7415 115 66.1662 114.706C66.5852 114.415 67.0553 114.214 67.5493 114.115C67.7997 114.064 68.0543 114.04 68.3093 114.042L74.3804 114.073V118.237Z" fill="#2F2E41"/>
<path d="M59.0239 102.664L54.4865 102.646L55.9491 115.026L59.0239 115.042V102.664Z" fill="#9E616A"/>
<path d="M59.808 118.156L49.8982 118.102V117.971C49.8981 117.706 49.923 117.441 49.9724 117.18C50.0698 116.667 50.264 116.178 50.5437 115.743C50.8276 115.302 51.1919 114.924 51.6157 114.629C52.0336 114.34 52.5025 114.139 52.9953 114.04C53.2452 113.99 53.4991 113.965 53.7535 113.967L59.808 113.998V118.156Z" fill="#2F2E41"/>
<path d="M58.8312 51.9961L51.201 81.6835L53.9939 110.141L60.1779 110.319L58.8314 84.6233L66.546 71.8001L68.2192 110.494L73.8287 110.08L76.9491 76.8115C78.009 74.2138 78.7863 71.5004 79.2664 68.7222C79.6437 66.5414 79.8272 64.329 79.8146 62.1131C79.8082 60.6212 79.6982 59.1319 79.4855 57.6566C79.4095 57.1068 79.3066 56.5615 79.1773 56.0226L76.9022 53.6181L58.8312 51.9961Z" fill="#2F2E41"/>
<path d="M68.9406 56.9614C67.6574 56.9614 66.4534 56.9185 65.3616 56.8337C64.2464 56.7539 63.137 56.6017 62.0399 56.3779C61.1059 56.196 60.1963 55.8974 59.3307 55.4886C58.634 55.1748 58.0281 54.6763 57.5735 54.0427L57.5215 53.9638L59.607 39.8131L61.856 23.9023C62.0041 22.8494 62.5183 21.89 63.3008 21.2067C64.0833 20.5235 65.0795 20.164 66.0997 20.1969L73.1432 20.4219C73.6714 20.4388 74.191 20.5661 74.6711 20.7962C75.1512 21.0263 75.5822 21.3546 75.9383 21.7616C76.2945 22.1686 76.5687 22.6459 76.7446 23.1655C76.9206 23.685 76.9947 24.236 76.9626 24.7859L76.038 40.6094L79.4485 56.2176L79.207 56.2527C79.1098 56.2661 78.7355 56.3177 78.1492 56.3864C77.3829 56.4763 76.6003 56.5572 75.8234 56.6271C74.7242 56.7258 73.6486 56.8035 72.6265 56.858C71.3303 56.9269 70.0879 56.9602 68.9406 56.9614Z" fill="#CCCCCC"/>
<path d="M65.032 17.3853C65.0301 17.3853 65.0283 17.3853 65.0264 17.3853C64.8786 17.3852 64.7323 17.3548 64.5958 17.2957C64.4593 17.2367 64.3354 17.1502 64.2309 17.0412C64.1265 16.9322 64.0437 16.8028 63.9872 16.6604C63.9308 16.518 63.9018 16.3655 63.9019 16.2114V9.66433C63.9008 8.49135 64.1259 7.33012 64.5639 6.24968C65.4215 4.14123 67.0265 2.45918 69.0444 1.55407C70.3206 0.983375 71.7126 0.751572 73.0958 0.879416C74.479 1.00726 75.8103 1.49076 76.9703 2.28662C78.1303 3.08248 79.0829 4.16586 79.7427 5.43973C80.4026 6.71361 80.7491 8.13822 80.7513 9.58599V16.1431C80.7515 16.3009 80.7211 16.4571 80.6621 16.6024C80.5465 16.8859 80.3303 17.1118 80.0587 17.233C79.9193 17.295 79.7694 17.3272 79.6179 17.3277L65.0311 17.3853H65.032Z" fill="#2F2E41"/>
<path d="M76.1305 7.41905C76.7181 8.53791 76.9745 9.81322 76.8672 11.0839C76.76 12.3546 76.294 13.5636 75.5281 14.5584C74.7622 15.5531 73.7308 16.2889 72.564 16.6728C71.3973 17.0567 70.1475 17.0715 68.9727 16.7154C68.1948 16.4823 67.4689 16.0906 66.8372 15.563C66.2055 15.0353 65.6805 14.3823 65.2926 13.6416C64.7065 12.5232 64.451 11.2489 64.5585 9.97941C64.666 8.70989 65.1316 7.50198 65.8967 6.50797C66.6617 5.51395 67.6919 4.77835 68.8573 4.3939C70.0228 4.00945 71.2713 3.99337 72.4456 4.34769C73.2242 4.5799 73.9509 4.97098 74.5834 5.49826C75.216 6.02553 75.7419 6.6785 76.1305 7.4193V7.41905Z" fill="#9E616A"/>
<path d="M61.9102 10.1973C61.9094 9.26963 62.0874 8.35124 62.4338 7.49673C63.1119 5.82948 64.3812 4.49948 65.9769 3.78404C66.7956 3.41832 67.6765 3.22802 68.5672 3.22446L69.824 3.21789C69.8382 3.2178 69.8523 3.21777 69.8664 3.21777C70.7367 3.21833 71.5984 3.39761 72.4023 3.74536C73.2061 4.09312 73.9364 4.60255 74.5515 5.24456C75.1665 5.88657 75.6542 6.64859 75.9868 7.48711C76.3193 8.32564 76.4902 9.22424 76.4897 10.1316V10.2628L73.8308 10.274L72.9242 7.63321L72.7429 10.2791L71.3696 10.2854L70.9124 8.95309L70.8207 10.2871L61.9113 10.3287L61.9102 10.1973Z" fill="#2F2E41"/>
<path d="M51.2059 23.9701C50.7968 24.0744 50.4142 24.2699 50.0844 24.5431C49.8267 24.7557 49.6063 25.0133 49.4331 25.3044C49.0915 25.8806 48.941 26.5579 49.0048 27.232C49.0369 27.5726 49.1255 27.9047 49.2666 28.2137C49.4405 28.5987 49.6908 28.9409 50.0009 29.2177C50.3111 29.4945 50.674 29.6995 51.0657 29.8193C51.4574 29.9391 51.8691 29.9709 52.2734 29.9126C52.6778 29.8543 53.0657 29.7072 53.4116 29.4811C53.4371 29.4639 53.4623 29.4465 53.4873 29.4289C53.5123 29.4112 53.5368 29.3932 53.5609 29.3748C53.5852 29.3564 53.609 29.3376 53.6325 29.3186C53.6559 29.2996 53.6791 29.2804 53.7022 29.2608L68.3741 34.705C68.8255 34.8724 69.3169 34.8824 69.7742 34.7335C70.2316 34.5845 70.6302 34.2847 70.91 33.8792L74.3883 28.8581L70.1829 25.9056L67.976 28.5194L54.5488 25.7347C54.5342 25.6984 54.519 25.6623 54.5033 25.6264C54.4876 25.5905 54.4712 25.5547 54.4542 25.5191C54.4368 25.4836 54.4189 25.4483 54.4005 25.4132C54.3821 25.378 54.3627 25.3432 54.3422 25.3086C54.0218 24.769 53.5459 24.3489 52.9825 24.1084C52.4191 23.868 51.7973 23.8195 51.2059 23.9701Z" fill="#9E616A"/>
<path d="M68.2129 26.8713C68.6518 26.3002 69.2654 25.5588 69.8889 24.8234C70.5123 24.088 71.145 23.3591 71.6223 22.8139C72.0995 22.2686 72.4207 21.9072 72.4207 21.9072C72.8612 21.2128 73.5187 20.6987 74.2815 20.4524C75.0443 20.2061 75.8654 20.2426 76.6053 20.5559C77.3452 20.8691 77.9583 21.4397 78.3404 22.1708C78.7225 22.9019 78.8501 23.7483 78.7015 24.5664C78.6166 25.0373 78.4412 25.4854 78.1858 25.8839C78.1858 25.8839 77.7072 26.5369 76.9847 27.5116C76.2621 28.4864 75.2954 29.7839 74.3203 31.0739C73.3452 32.3639 72.3606 33.6472 71.6014 34.5945C70.8422 35.5418 70.3079 36.1537 70.2327 36.1013L67.5845 27.8944C67.5092 27.842 67.774 27.4424 68.2129 26.8713Z" fill="#CCCCCC"/>
<path d="M69.7845 17.179C69.7429 17.3907 69.7591 17.6102 69.8312 17.8128C69.8674 17.9165 69.9174 18.0143 69.9796 18.1035C70.0329 18.1795 70.0946 18.2487 70.1635 18.3096C70.3675 18.4894 70.6263 18.5874 70.8935 18.5862C70.9101 18.5861 70.9268 18.5856 70.9434 18.5848C70.9601 18.584 70.9767 18.5827 70.9933 18.5811C71.0101 18.5797 71.0269 18.5777 71.0435 18.5753C71.0602 18.5728 71.0769 18.5701 71.0937 18.567L72.0374 18.3882L73.3372 15.493V18.1449L77.6277 17.3396V6.08594L70.4349 6.12194L70.6127 6.33726C71.203 7.05973 71.5905 7.93798 71.7329 8.87532C71.8724 9.82472 71.8549 10.792 71.6811 11.7353C71.5121 12.6897 71.2556 13.625 70.9152 14.5283C70.6176 15.3285 70.276 16.1102 69.8921 16.8695C69.8426 16.9669 69.8063 17.0711 69.7845 17.179Z" fill="#2F2E41"/>
<path d="M19.9632 118.577H108.873C108.935 118.577 108.994 118.552 109.038 118.506C109.082 118.461 109.106 118.399 109.106 118.334C109.106 118.27 109.082 118.208 109.038 118.162C108.994 118.116 108.935 118.091 108.873 118.091H19.9632C19.9013 118.091 19.842 118.116 19.7982 118.162C19.7544 118.208 19.7299 118.27 19.7299 118.334C19.7299 118.399 19.7544 118.461 19.7982 118.506C19.842 118.552 19.9013 118.577 19.9632 118.577Z" fill="#CACACA"/>
</g>
<defs>
<clipPath id="clip0_71_317">
<rect width="108.402" height="117.732" fill="white" transform="translate(0.704712 0.845215)"/>
</clipPath>
</defs>
</svg>
